<svg width="24" height="24" viewBox="0 0 24 24" fill="none"><path fill-rule="evenodd" clip-rule="evenodd" d="M13.2899 2L6 2C3.79086 2 2 3.79086 2 6V18C2 20.2091 3.79086 22 6 22H18C20.2091 22 22 20.2091 22 18V10.7101C21.3663 10.8987 20.695 11 20 11C16.134 11 13 7.86599 13 4C13 3.30503 13.1013 2.63371 13.2899 2ZM8 6C9.1032 6 10 6.8952 10 8C10 9.1056 9.1032 10 8 10C6.8944 10 6 9.1056 6 8C6 6.8952 6.8944 6 8 6ZM6 18L9 14L11 16L15 11L18 18H6Z" fill="#fff"></path><path d="M21 0V3H24V5H21V8H19V5H16V3H19V0H21Z" fill="#fff"></path></svg>