<svg height="126" viewBox="0 0 323 126" width="323"><mask id="a" fill="none"><path d="m0 58.125v57.875h313.999v-115.751h-313.999z" fill="none" fill-rule="evenodd"/></mask><g fill="none" fill-rule="evenodd" transform="translate(0 1)"><path d="m313.999 47.1572c0 25.906-21.001 46.908-46.908 46.908h-31.654c-6.057 0-10.967 4.91-10.967 10.967 0 6.058-4.91 10.968-10.967 10.968h-175.173c-21.169 0-38.33-17.161-38.33-38.33v-.004c0-21.169 17.161-38.33 38.33-38.33h56.557c10.791 0 19.54-8.748 19.54-19.54v-.007c0-10.791 8.748-19.54 19.54-19.54h133.124c25.907 0 46.908 21.002 46.908 46.908" fill="#4f545c" fill-opacity=".3" mask="url(#a)" transform="translate(0 9.082)"/><path d="m20.1572 91.8183 13.708-6.559c3.041-1.455 6.663-.375 8.424 2.514l3.145 5.155c.855 1.401 2.33 2.25 3.968 2.195 1.631-.027 3.088-.895 3.897-2.324l2.814-4.967c1.648-2.91 5.203-4.121 8.268-2.817l3.764 1.6v-8.181l-6.95-4.817c-.27-.188-.431-.494-.431-.822v-3.489h-22.516v3.489c0 .328-.161.634-.43.822l-10.313 7.148c-3.772 2.615-6.383 6.584-7.348 11.053" fill="#4f545c"/><path d="m37.703 123.082h15.35v-5.829h-1.61c-.552 0-1-.447-1-1v-7.83c0-.553.448-1 1-1h1.61v-6.829c0-.553.447-1 1-1h5.525v-6.83c0-.553.447-1 1-1h7.567v-2.977l-4.546-1.932c-2.129-.901-4.6-.061-5.746 1.963l-2.814 4.968c-1.162 2.052-3.257 3.299-5.605 3.337-.036.001-.073.001-.109.001-2.304 0-4.39-1.173-5.598-3.154l-3.145-5.156c-1.225-2.008-3.742-2.759-5.854-1.75l-14.911 7.135c-.389 4.859 1.167 9.694 4.374 13.374z" fill="#36393e"/><path d="m242.681 117.253h-2.915-8.157v5.829h8.216 2.856z" fill="#4f545c"/><path d="m231.609 115.253h7.157v-5.83h-7.157z" fill="#72767d"/><g fill="#36393e"><path d="m62.448 123.082v-5.829h-1.61-5.786v5.829h6.257z"/><path d="m52.443 115.253h1.61 5.786v-5.83h-5.786-1.61z"/><path d="m55.053 107.423h5.786 1.61v-5.829h-7.396z"/><path d="m61.578 99.593h6.567v-5.829h-6.567z"/></g><path d="m103.596 123.082h10.831v-5.655h-10.831z" fill="#4f545c"/><path d="m79.8886 91.7636h1.568 9.395c.553 0 1 .447 1 1v6.83h2.654 9.396c.552 0 1 .447 1 1v7.829c0 .553-.448 1-1 1h-4.22v5.83h2.915c.199 0 .374.073.53.174h10.952v-41.15h-34.19zm139.9761-34.7978v-4.568c0-6.357-5.171-11.528-11.527-11.528h-61.245c-6.356 0-11.527 5.171-11.527 11.528v4.568zm.0005 29.873v-12.563h-20.807c-.057 0-.106-.023-.16-.032v11.901c0 .552-.448 1-1 1v6.479c.552 0 1 .447 1 1v3.707c0 3.622-2.946 6.569-6.568 6.569h-16.703c-3.621 0-6.567-2.947-6.567-6.569v-25.055h-6.583c-.001.553-.448 1-1 1h-25.912v33.147h2.795c1.534-6.214 7.14-10.841 13.821-10.841h4.818c7.858 0 14.25 6.393 14.25 14.25 0 1.61-.28 3.151-.774 4.595h49.39v-22.76c0-.553.448-1 1-1v-3.828c-.552 0-1-.447-1-1" fill="#36393e"/><path d="m187.7651 84.7627c1.895-1.236 3.026-3.32 3.026-5.574 0-3.67-2.985-6.655-6.655-6.655s-6.656 2.985-6.656 6.655c0 2.254 1.131 4.338 3.026 5.574.338.221.51.623.437 1.02l-1.37 7.428c.03.186.192.328.387.328h8.351c.195 0 .356-.142.387-.328l-1.37-7.428c-.073-.397.099-.799.437-1.02" fill="#36393e"/><path d="m80.717 123.082v-5.829h-2.915-3.871-.61-1-3.914-3.959v5.829h5.697 3.176.61z" fill="#4f545c"/><path d="m76.803 109.423h-1.871-1.305-2.305-1.915-5.959-1.609v5.83h1.609 5.959 1.915 1 2.61 1.871z" fill="#72767d"/><path d="m68.407 107.423h3.915 1.609.696 3.176 3.914.305v-5.829h-7.395-.696-9.483v5.829z" fill="#4f545c"/><path d="m70.973 99.593h9.483 9.396v-5.829h-9.396-9.483z" fill="#4f545c"/><path d="m101.596 123.082v-5.829h-2.915-6.481-2.914-5.959-.61v5.829h.61 8.873z" fill="#72767d"/><path d="m88.286 109.423h-3.959-1.305-2.305-1.914v5.83h1.914 1 2.61 3.959 4.915 4.481v-5.83h-3.176z" fill="#4f545c"/><path d="m93.506 101.594h-9.483v5.829h5.263 4.22 5.176 4.22v-5.829z" fill="#72767d"/><path d="m123.822 117.253h-3.959-3.437v5.829h7.396z" fill="#36393e"/><path d="m124.822 115.253h3.437v-5.83h-7.396v5.83z" fill="#36393e"/><path d="m144.7011 123.082v-.145c-2.222-1.376-4.036-3.342-5.224-5.684h-4.172-6.046-3.437v5.829h9.483zm-14.4424-13.6592v5.83h6.047 2.336c-.456-1.393-.711-2.877-.711-4.421 0-.475.026-.945.072-1.409zm9.6724 1.4092c0 5.68 3.891 10.455 9.144 11.836-3.811-2.561-6.326-6.909-6.326-11.836s2.515-9.275 6.326-11.836c-5.253 1.381-9.144 6.156-9.144 11.836" fill="#4f545c"/><path d="m156.9994 119.0595c-4.537 0-8.227-3.69-8.227-8.228 0-.552.448-1 1-1s1 .448 1 1c0 3.434 2.793 6.228 6.227 6.228s6.228-2.794 6.228-6.228c0-3.433-2.794-6.227-6.228-6.227-.552 0-1-.447-1-1s.448-1 1-1c4.537 0 8.228 3.69 8.228 8.227 0 4.538-3.691 8.228-8.228 8.228m0-20.478c-6.755 0-12.25 5.496-12.25 12.25 0 6.755 5.495 12.25 12.25 12.25s12.25-5.495 12.25-12.25c0-6.754-5.495-12.25-12.25-12.25" fill="#72767d"/><path d="m262.3237 80.1865h2.126c.553 0 1 .447 1 1s-.447 1-1 1h-1.126v9.092c0 .183.149.333.333.333h6.56c.184 0 .333-.15.333-.333v-10.092c0-.553.448-1 1-1h9.845c-.138-.796-.246-1.602-.293-2.427-.092-1.627.023-3.231.294-4.799h-40.623c-.184 0-.334.15-.334.333v6.56c0 .184.15.333.334.333h6.443c.552 0 1 .447 1 1s-.448 1-1 1h-1.95c.038.105.068.215.068.333v8.759c0 .183.149.333.333.333h9.226c.184 0 .333-.15.333-.333v-10.092c0-.553.448-1 1-1 .553 0 1 .447 1 1h4.098c0-.553.448-1 1-1m46.457 2.3818c-1.601 1.793-3.805 2.855-6.205 2.99-.171.01-.343.015-.513.015-4.732 0-8.71-3.709-8.981-8.491-.135-2.401.672-4.71 2.273-6.503s3.805-2.856 6.205-2.99c2.395-.138 4.709.67 6.502 2.271 1.793 1.602 2.856 3.805 2.991 6.205.136 2.4-.671 4.71-2.272 6.503m7.459 6.659c3.38-3.785 5.083-8.66 4.797-13.726-.286-5.068-2.529-9.72-6.315-13.1-3.784-3.379-8.655-5.078-13.727-4.797-5.067.287-9.719 2.529-13.099 6.315-3.38 3.785-5.084 8.66-4.797 13.727.592 10.459 9.582 18.48 20.042 17.897 5.067-.287 9.719-2.53 13.099-6.316" fill="#4f545c"/><path d="m124.8222 101.8554c-.552 0-1 .447-1 1v2.865c0 .553.448 1 1 1s1-.447 1-1v-2.865c0-.553-.448-1-1-1m62.9429-17.0927c-.338.221-.51.623-.437 1.02l1.37 7.428c-.031.186-.192.328-.387.328h-8.351c-.195 0-.357-.142-.387-.328l1.37-7.428c.073-.397-.099-.799-.437-1.02-1.895-1.236-3.026-3.32-3.026-5.574 0-3.67 2.986-6.655 6.656-6.655s6.655 2.985 6.655 6.655c0 2.254-1.131 4.338-3.026 5.574m-3.629-14.229c-4.773 0-8.656 3.882-8.656 8.655 0 2.706 1.252 5.222 3.381 6.858l-1.277 6.919c-.011.061-.016.121-.016.182 0 1.318 1.073 2.391 2.392 2.391h8.351c1.319 0 2.392-1.073 2.392-2.391 0-.061-.005-.121-.017-.182l-1.275-6.92c2.128-1.635 3.38-4.151 3.38-6.857 0-4.773-3.883-8.655-8.655-8.655m-70.0575-18.1363v1.568c0 1.658-1.343 3-3 3h-28.19c-1.657 0-3-1.342-3-3v-1.568c0-6.366 5.161-11.527 11.527-11.527h23.33c.688 0 1.156.674.943 1.329-1.069 3.279-1.61 6.698-1.61 10.198m-36.19 0v5.568c0 .553.447 1 1 1h36.19c.552 0 1-.447 1-1v-5.568c0-4.209.832-8.292 2.473-12.135.131-.308.099-.663-.086-.943s-.498-.449-.834-.449h-26.216c-7.459 0-13.527 6.068-13.527 13.527m138.9761 4.5684h-78.299c-1.657 0-3-1.343-3-3v-1.568c0-6.367 5.161-11.528 11.527-11.528h61.245c6.366 0 11.527 5.161 11.527 11.528v1.568c0 1.657-1.343 3-3 3m5 1v-5.568c0-7.459-6.068-13.528-13.527-13.528h-61.245c-7.459 0-13.527 6.069-13.527 13.528v5.568c0 .553.447 1 1 1h86.299c.552 0 1-.447 1-1m-64.8653 44.6387c-.552 0-1 .447-1 1s.448 1 1 1c3.434 0 6.228 2.794 6.228 6.228 0 3.433-2.794 6.227-6.228 6.227s-6.227-2.794-6.227-6.227c0-.553-.448-1-1-1s-1 .447-1 1c0 4.537 3.69 8.227 8.227 8.227s8.228-3.69 8.228-8.227c0-4.538-3.691-8.228-8.228-8.228m103.0157-69.3897h1.51v1.51c0 .553.448 1 1 1s1-.447 1-1v-1.51h1.51c.552 0 1-.447 1-1s-.448-1-1-1h-1.51v-1.51c0-.552-.448-1-1-1s-1 .448-1 1v1.51h-1.51c-.552 0-1 .447-1 1s.448 1 1 1m-12.9117-30.0322c.256 0 .512-.098.707-.293l1.184-1.183c.39-.389.39-1.023 0-1.414-.391-.39-1.024-.39-1.414 0l-1.184 1.183c-.391.39-.391 1.023-.001 1.414.196.195.452.293.708.293m-5.916 5.917c.256 0 .512-.098.707-.293l1.183-1.184c.391-.39.391-1.023 0-1.414-.39-.39-1.024-.39-1.414 0l-1.183 1.184c-.391.391-.391 1.023 0 1.414.195.195.451.293.707.293m6.6231-2.8906c-.391-.391-1.023-.391-1.414 0s-.391 1.023 0 1.414l1.184 1.184c.195.195.451.293.707.293.255 0 .511-.098.707-.293.39-.391.39-1.024 0-1.414zm-6.147-3.3194c.195.195.451.293.707.293s.512-.098.707-.293c.391-.391.391-1.023 0-1.414l-1.183-1.183c-.391-.39-1.024-.39-1.414 0-.391.391-.391 1.024 0 1.414zm45.3316 98.5742c-.391-.391-1.024-.391-1.415 0l-1.183 1.183c-.391.389-.391 1.023-.001 1.414.196.195.452.293.708.293s.512-.098.707-.293l1.184-1.183c.39-.39.39-1.023 0-1.414m-7.3311 5.9161-1.183 1.184c-.391.39-.391 1.023 0 1.414.195.195.451.293.707.293s.512-.098.707-.293l1.183-1.184c.391-.391.391-1.023 0-1.414s-1.024-.391-1.414 0m6.147 0c-.391-.391-1.023-.391-1.414 0s-.391 1.023 0 1.414l1.184 1.184c.195.195.451.293.707.293.255 0 .511-.098.707-.293.39-.391.39-1.024 0-1.414zm-4.7329-4.7334-1.183-1.183c-.391-.39-1.025-.39-1.414 0-.391.391-.391 1.024 0 1.414l1.183 1.183c.195.195.451.293.707.293s.512-.098.707-.293c.391-.391.391-1.023 0-1.414m-50.4693-85.295c.833 0 1.51.678 1.51 1.511 0 .832-.677 1.51-1.51 1.51s-1.51-.678-1.51-1.51c0-.833.677-1.511 1.51-1.511m0 5.021c1.935 0 3.51-1.575 3.51-3.51 0-1.936-1.575-3.511-3.51-3.511-1.936 0-3.51 1.575-3.51 3.511 0 1.935 1.574 3.51 3.51 3.51" fill="#1f2225"/><path d="m316.2397 89.2275c-3.38 3.786-8.032 6.028-13.099 6.315-10.46.583-19.45-7.437-20.042-17.896-.287-5.067 1.417-9.942 4.797-13.728 3.38-3.785 8.032-6.027 13.099-6.314 5.072-.281 9.943 1.418 13.727 4.797 3.786 3.38 6.029 8.032 6.315 13.099s-1.417 9.942-4.797 13.727zm-75.468-7.041h2.629c-.037.105-.067.215-.067.333v8.759c0 1.288 1.044 2.333 2.333 2.333h9.226c1.288 0 2.333-1.045 2.333-2.334v-.106c.264 1.049.448 2.125.525 3.229.336 4.842-1.231 9.52-4.414 13.173l-8.656 9.935v-1.256c0-.552-.448-1-1-1h-2.915v-6.83c0-.552-.448-1-1-1h-8.157v-28.716c0-.552-.448-1-1-1s-1 .448-1 1v44.375h-5.807-7.583-51.976c2.274-1.35 4.144-3.306 5.377-5.655h51.245c.553 0 1-.447 1-1v-23.76c0-.552-.447-1-1-1-.552 0-1 .448-1 1v22.76h-49.39c.851-2.486 1.069-5.263.31-8.176-1.655-6.354-7.578-10.669-14.145-10.669h-4.459c-6.68 0-12.286 4.627-13.82 10.841h-2.795v-33.146h25.911c.553 0 1-.447 1-1s-.447-1-1-1h-26.911c-.553 0-1 .447-1 1v34.146h-4.307-4.436-4.959c-.553 0-1 .448-1 1v6.83h-2.785v-41.976c0-.553-.448-1-1-1h-36.19c-.552 0-1 .447-1 1v18.487h-7.744v-21.141c0-1.658 1.344-3 3-3h47.678c1.656 0 3 1.342 3 3v27.724c0 .553.447 1 1 1 .552 0 1-.447 1-1v-27.724c0-1.658 1.343-3 3-3h36.237c2.209 0 4 1.791 4 4v1.654 25.055c0 3.627 2.941 6.568 6.569 6.568h16.702c3.627 0 6.568-2.941 6.568-6.568v-3.708c0-.552-.448-1-1-1-.553 0-1 .448-1 1v2.707c0 2.523-2.046 4.568-4.569 4.568h-16.702c-2.523 0-4.568-2.045-4.568-4.567v-28.71c0-1.105.896-2 2-2h6.048 15.791c1.104 0 2 .895 2 2v17.523c0 .553.447 1 1 1 .552 0 1-.447 1-1v-11.9c.054.008.103.032.16.032h20.806v12.562c0 .553.448 1 1 1 .553 0 1-.447 1-1v-13.562c0-.553-.447-1-1-1h-21.806c-.057 0-.106.023-.16.032v-.686c0-2.209 1.791-4 4-4h23.71c1.657 0 3 1.342 3 3v2.942c0 .553.448 1 1 1s1-.447 1-1v-2.049c0-1.22.989-2.209 2.209-2.209h3.253c1.22 0 2.209.989 2.209 2.209-.51.429-.841 1.063-.841 1.778v6.56c0 1.288 1.045 2.333 2.333 2.333zm-9.163 33.066h7.157v-5.83h-7.157zm11.072 7.829h-2.856-8.216v-5.829h8.157 2.915zm-97.931-12.25c0-6.754 5.495-12.25 12.25-12.25s12.25 5.496 12.25 12.25c0 6.755-5.495 12.25-12.25 12.25s-12.25-5.495-12.25-12.25zm-4.819 0c0-5.679 3.892-10.455 9.144-11.835-3.811 2.56-6.325 6.909-6.325 11.835 0 4.927 2.514 9.276 6.325 11.836-5.252-1.38-9.144-6.156-9.144-11.836zm-1.289 4.421h-2.336-6.047v-5.83h7.744c-.046.464-.072.934-.072 1.409 0 1.544.255 3.028.711 4.421zm6.059 7.829h-9.395-9.483v-5.829h3.436 6.047 4.171c1.189 2.342 3.003 4.308 5.224 5.685zm-23.837-7.829v-5.83h7.395v5.83h-3.436zm2.959 7.829h-7.396v-5.829h3.437 3.959zm-20.227 0h10.831v-5.655h-10.831zm-1-7.829h-2.914v-5.83h4.22c.552 0 1-.447 1-1v-7.829c0-.553-.448-1-1-1h-9.396-2.654v-6.83c0-.553-.447-1-1-1h-9.395-1.568v-17.487h34.19v41.15h-10.952c-.156-.1-.331-.174-.531-.174zm-1 7.829h-9.395-8.874-.609v-5.829h.609 5.959 2.915 6.481 2.914zm-20.878-7.829h-1.915v-5.83h1.915 2.305 1.304 3.959 6.22 3.176v5.83h-4.481-4.915-3.959-2.609zm0 7.829h-6.786-.61-3.177-5.697v-5.829h3.959 3.915 1 .61 3.871 2.915zm-18.879-7.829v-5.83h1.609 5.959 1.915 2.305 1.305 1.871v5.83h-1.871-2.61-1-1.915-5.959zm.609 7.829h-1.138-6.257v-5.829h5.786 1.609zm-10.005-7.829v-5.83h1.61 5.786v5.83h-5.786zm.61 7.829h-13.529c-1.157 0-2.257-.5-3.016-1.372l-12.317-14.136c-2.519-2.893-4.02-6.497-4.359-10.267-.163-1.825.896-3.543 2.549-4.334l12.347-5.908c2.113-1.01 4.629-.259 5.855 1.75l3.144 5.155c1.208 1.982 3.295 3.154 5.598 3.154h.109c2.348-.039 4.444-1.286 5.606-3.337l2.813-4.968c1.146-2.025 3.617-2.864 5.746-1.963l1.808.768c1.66.706 2.738 2.335 2.738 4.14h-7.567c-.552 0-1 .447-1 1v6.83h-5.525c-.552 0-1 .447-1 1v6.829h-1.61c-.552 0-1 .448-1 1v7.83c0 .553.448 1 1 1h1.61zm-25.547-42.316 10.312-7.148c.269-.187.43-.494.43-.823v-.488c0-1.657 1.344-3 3-3h16.517c1.657 0 3 1.343 3 3v.489c0 .328.161.635.43.822l6.95 4.817v8.181l-3.763-1.6c-3.066-1.305-6.621-.093-8.269 2.816l-2.813 4.968c-.81 1.429-2.267 2.297-3.898 2.324-1.638.055-3.113-.794-3.967-2.195l-3.145-5.155c-1.762-2.889-5.383-3.969-8.425-2.514l-13.708 6.559c.966-4.469 3.577-8.439 7.349-11.053zm6.285-16.962c0-1.915 1.557-3.472 3.472-3.472h24.487c1.915 0 3.473 1.557 3.473 3.502 0 1.915-1.558 3.473-3.473 3.473h-24.487c-1.915 0-3.472-1.558-3.472-3.503zm28.657 37.79v5.829h-1.609-5.786v-5.829zm-.87-2.001h6.567v-5.829h-6.567zm31.928 2.001h9.396v5.829h-4.22-5.176-4.22-5.263v-5.829zm-3.654-2.001h-9.395-9.484v-5.829h9.484 9.395zm-15.92 2.001h.695 7.396v5.829h-.305-3.915-3.176-.695-1.61-3.915-3.959v-5.829zm51.891-47.108c0-11.747 9.522-21.271 21.27-21.271h15.312 45.933c11.748 0 21.271 9.524 21.271 21.272v8.135c0 1.104-.895 2-2 2h-29.71-19.791-8.048-42.237c-1.105 0-2-.896-2-2zm105.786 7.846c0-1.105.896-2 2-2h6.656c1.965 0 3.554 1.639 3.469 3.656-.078 1.887-1.757 3.319-3.646 3.319h-6.479c-1.104 0-2-.895-2-2zm90.735 8.698c-.664-2.539-1.834-4.941-3.429-7.026-4.404-5.764-11.048-8.799-18.033-8.395-5.6.316-10.742 2.795-14.477 6.978-2.183 2.445-3.712 5.306-4.561 8.374h-40.564c0-.966.583-1.806 1.445-2.244 1.862-.941 3.117-2.919 3.006-5.191-.14-2.865-2.821-5.194-5.69-5.194h-8.432v-3.846c0-12.852-10.418-23.271-23.27-23.271h-45.934-15.311-49.46c-.552 0-1 .448-1 1 0 .553.448 1 1 1h33.099c1.852 0 2.75 2.323 1.337 3.52-5.041 4.27-8.247 10.641-8.247 17.751v8.136c0 1.104-.896 2-2 2h-49.678c-1.104 0-2-.896-2-2v-8.136c0-11.729 9.542-21.271 21.271-21.271.553 0 1-.447 1-1 0-.552-.447-1-1-1-12.831 0-23.271 10.44-23.271 23.271v11.136 8.469c0 .807-.906 1.282-1.57.823l-3.81-2.642v-1.311c0-.966.583-1.806 1.445-2.243 1.862-.942 3.117-2.921 3.006-5.192-.14-2.865-2.821-5.194-5.69-5.194h-24.263c-3.017 0-5.472 2.455-5.472 5.502 0 2.141 1.236 3.996 3.031 4.894.857.429 1.426 1.272 1.426 2.231v1.313l-9.882 6.85c-4.68 3.244-7.77 8.359-8.477 14.034-.708 5.687 1.039 11.422 4.794 15.732l8.036 9.224c1.692 1.941.313 4.97-2.261 4.97h-4.321c-.552 0-1 .448-1 1 0 .553.448 1 1 1h13.111 16.805 7.712 1.683 5.697 3.177 2.61 6.786 2.609 8.874 9.395 12.831 9.396 11.483 9.395 6.48 4.819 58.763 7.039 7.807 9.671 3.401 46.827c.552 0 1-.447 1-1 0-.552-.448-1-1-1h-43.299c-1.396 0-2.528-1.131-2.528-2.528l9.816-11.265c3.568-4.097 5.585-9.401 5.263-14.824-.185-3.1-1.073-6.031-2.534-8.646v-4.632c0-.553-.447-1-1-1-.552 0-1 .447-1 1v10.092c0 .183-.149.333-.333.333h-9.226c-.184 0-.333-.15-.333-.333v-8.759c0-.118-.03-.228-.068-.333h1.95c.552 0 1-.447 1-1s-.448-1-1-1h-6.443c-.184 0-.334-.149-.334-.333v-6.56c0-.183.149-.333.333-.333h40.624c-.271 1.568-.386 3.172-.294 4.799.047.825.155 1.631.293 2.427h-9.845c-.552 0-1 .447-1 1v10.092c0 .183-.149.333-.333.333h-6.56c-.184 0-.333-.15-.333-.334v-9.091h1.126c.553 0 1-.447 1-1s-.447-1-1-1h-2.126c-.552 0-1 .447-1 1v10.092c0 1.288 1.044 2.333 2.333 2.333h6.56c1.288 0 2.333-1.045 2.333-2.334v-9.091h9.295c2.48 8.937 10.682 15.388 20.209 15.387.398 0 .798-.011 1.2-.034 5.6-.317 10.742-2.795 14.478-6.98 4.699-5.263 6.467-12.43 4.612-19.53z" fill="#1f2225"/><path d="m307.289 81.2363c-1.246 1.395-2.959 2.221-4.826 2.326-3.853.2-7.166-2.74-7.384-6.594-.106-1.866.522-3.663 1.768-5.057 1.245-1.395 2.959-2.221 4.825-2.326.136-.008.271-.011.405-.011 1.72 0 3.359.623 4.653 1.778 1.394 1.245 2.221 2.959 2.326 4.826.106 1.867-.522 3.663-1.767 5.058m.773-11.376c-1.794-1.601-4.107-2.409-6.502-2.271-2.4.134-4.604 1.197-6.206 2.99-1.601 1.793-2.408 4.102-2.272 6.503.27 4.782 4.249 8.491 8.981 8.491.17 0 .341-.005.513-.015 2.4-.135 4.604-1.197 6.205-2.99s2.408-4.103 2.272-6.503-1.198-4.603-2.991-6.205" fill="#1f2225"/></g></svg>
