<svg height="270" viewBox="0 0 438 270" width="438" xmlns="http://www.w3.org/2000/svg" xmlns:xlink="http://www.w3.org/1999/xlink"><mask id="a" fill="#fff"><path d="m0 229v-228.084h438v228.084z" fill="none" fill-rule="evenodd"/></mask><g fill="none" fill-rule="evenodd"><g transform="translate(0 -1)"><path d="m47.3298.9156h347.604c23.785 0 43.066 19.281 43.066 43.066s-19.281 43.066-43.066 43.066h-52.767c-20.344 0-36.835 16.492-36.835 36.836 0 20.343 16.491 36.835 36.835 36.835h10.476c18.855 0 34.141 15.285 34.141 34.14 0 18.856-15.286 34.141-34.141 34.141h-184.556c-27.614 0-50-22.385-50-50v-33.421c0-27.614-22.385-50-50-50h-20.757c-26.14 0-47.33-21.19-47.33-47.33v-.003c0-26.14 21.19-47.33 47.33-47.33" fill="#4f545c" fill-opacity=".3" mask="url(#a)" transform="translate(0 40.297)"/><path d="m368.3059 110.0563c-2.487 0-4.51-2.023-4.51-4.51s2.023-4.51 4.51-4.51 4.51 2.023 4.51 4.51-2.023 4.51-4.51 4.51zm4.88-12.963h-9.761l-4.88 8.453 4.88 8.453h9.761l4.88-8.453zm-4.8004-17.2591c1.205 0 2.185-.98 2.185-2.185s-.98-2.185-2.185-2.185-2.185.98-2.185 2.185.98 2.185 2.185 2.185" fill="#72767d"/><path d="m287.0212 169.1652v-130.794c0-4.962-4.038-9-9-9h-32.052-145.067c-4.963 0-9 4.038-9 9v9.711c0 .552-.448 1-1 1v8.333c.552 0 1 .447 1 1v16.048c0 .553-.448 1-1 1v8.807c.552 0 1 .448 1 1v109.285c2.914-1.657 6.242-2.665 9.789-2.82v-1.153c0-.434.089-.845.23-1.23v-16.748-22.436-11.218-86.54-3.239c0-5.393 4.388-9.78 9.781-9.78h155.519c2.686 0 5.122 1.089 6.891 2.848.008.007.017.009.025.016.007.008.009.017.016.025 1.759 1.769 2.848 4.205 2.848 6.891v155.519c0 5.393-4.387 9.781-9.78 9.781h-3.992c-.017.001-.031.009-.048.009h-12.02-68.11-12.02c-.017 0-.031-.008-.048-.009h-2.023c.15.135.3.272.438.422 2.289 2.483 2.035 5.929 2.023 6.075-.043.523-.481.918-.996.918-.027 0-.054-.001-.082-.003-.551-.045-.961-.528-.915-1.078.001-.024.184-2.741-1.512-4.569-1.081-1.165-2.728-1.756-4.897-1.756-.06 0-.112-.008-.17-.009h-13.532c.028.303.047.61.047.921v.551c0 3.597-1.892 6.753-4.728 8.547h101.333 19.3 12.752c4.962 0 9-4.037 9-9v-27.512c0-.552.448-1 1-1v-16.813c-.552 0-1-.448-1-1" fill="#4f545c"/><path d="m130.967 186.3073c3.425 0 6.211-2.787 6.211-6.211v-6.492h-12.423v6.492c0 3.424 2.787 6.211 6.212 6.211m39.0645 19.3594h-1.404c-.552 0-1-.448-1-1v-2.842c-.681.143-1.367.223-2.049.223-2.022 0-4.008-.625-5.735-1.843-.876-.618-1.616-1.36-2.235-2.181v8.634c.01.192.34 5.707 5.272 5.813h7.151zm75.4961-21.0327c0-.552.448-1 1-1h4.435v-60.13l-1.557 1.557c-.39.39-1.023.39-1.414 0l-2.526-2.526c-3.606 2.279-7.522 3.904-11.661 4.838v3.564c0 .552-.448 1-1 1h-12.02-2.549-.971c.248.007.493.099.682.288l6.03 6.03c.39.39.39 1.023 0 1.414l-1.246 1.246c1.21 1.978 2.093 4.107 2.635 6.349h1.757c.552 0 1 .448 1 1v8.527c0 .552-.448 1-1 1h-1.757c-.542 2.242-1.425 4.372-2.635 6.35l1.246 1.246c.39.391.39 1.023 0 1.414l-6.03 6.029c-.39.391-1.023.391-1.414 0l-1.245-1.245c-1.979 1.21-4.108 2.093-6.35 2.635v1.757c0 .552-.448 1-1 1h-8.527c-.136 0-.266-.029-.384-.078-.185.047-.376.078-.575.078h-5.713c-1.327 0-2.407-1.08-2.407-2.407v-1.49c-.325.075-.678.004-.931-.25l-.747-.746c-.441.758-1.269 1.213-2.142 1.186l-3.96-.129c-.612-.02-1.189-.27-1.623-.703l-4.641-4.642c-.939-.939-.939-2.465 0-3.404.158-.158.185-.359.093-.515-1.074-1.811-1.882-3.76-2.403-5.79-.045-.174-.204-.296-.388-.296-1.364 0-2.443-1.079-2.443-2.407v-5.712c0-1.328 1.079-2.408 2.406-2.408.221 0 .38-.121.425-.296.521-2.029 1.329-3.978 2.403-5.79.092-.156.065-.356-.064-.486-.968-.967-.967-2.494-.029-3.432l4.648-4.648c.426-.427.992-.676 1.594-.703l4.568-.205c.738-.027 1.42.259 1.901.799.018.019.041.044.06.065l.342-.343c.253-.253.606-.324.931-.249v-1.49c0-1.327 1.08-2.407 2.407-2.407h5.713c.199 0 .39.032.576.077.118-.048.247-.077.383-.077h8.209v-4.349c-.632-.346-1.258-.707-1.873-1.091-.133.027-.263.065-.394.117l-2.305 2.305c-.294.294-.725.366-1.087.217-.475.219-1.002.338-1.554.327l-6.765-.221c-.867-.028-1.682-.382-2.295-.995l-7.93-7.93c-1.327-1.327-1.328-3.487-.001-4.814.501-.5.59-1.196.267-1.741-1.8-3.04-3.155-6.306-4.029-9.708-.156-.612-.711-1.039-1.349-1.039-1.938 0-3.465-1.527-3.465-3.404v-9.761c0-1.808 1.421-3.277 3.203-3.384.035-.003.065-.02.101-.02h.1c.699 0 1.254-.427 1.41-1.038.874-3.403 2.229-6.669 4.029-9.709.323-.545.234-1.241-.218-1.692-.67-.671-1.009-1.528-1.031-2.384-.002-.025-.014-.046-.014-.071 0-.026.012-.048.014-.073.013-.792.306-1.568.865-2.191h-16.876v71.52c0 1.655-1.346 3-3 3h-5.814v9.219h5.814c1.654 0 3 1.345 3 3v18.436c0 1.654-1.346 3-3 3h-1.808v4.42c0 1.103-.897 2-2 2h-2.006v11.003c1.611 1.534 3.561 2.741 5.773 3.479l4.246 1.415v-2.474c0-.552.448-1 1-1h1.404v-7.814c0-.552.448-1 1-1h12.019 14.331 37.146c.552 0 1 .448 1 1z" fill="#36393f"/><path d="m124.755 149.168h12.423v-9.218h-12.423z" fill="#36393f"/><path d="m187.1877 133.7018-.459.021c.217.169.428.349.633.541l.281-.281c-.045-.049-.096-.104-.137-.149-.08-.09-.195-.138-.318-.132m28.0992-.2309 1.246-1.246c.189-.189.435-.281.682-.288h-4.93c1.033.433 2.036.944 3.002 1.534m-57.4751 60.353c.428 1.906 1.533 3.581 3.185 4.747 1.962 1.385 4.343 1.799 6.631 1.195v-1.735l-4.879-1.627c-1.81-.603-3.468-1.483-4.937-2.58m-44.6172-53.8735h-1.296c.257.181.437.465.437.804v8.414h10.42v-9.218h-3.207c-.552 0-1-.448-1-1h-4.354c0 .552-.448 1-1 1m42.4136 40.0747h-2.8c.041 3.192 1.053 6.197 2.8 8.687z" fill="#36393f"/><path d="m139.178 149.169h16.43v-9.218h-16.43z" fill="#36393f"/><path d="m103.9216 139.9504v9.218h6.414v-8.414c0-.339.178-.623.436-.804zm45.0088 72.5205h9.065c-1.679-1.722-2.317-4.168-2.386-5.77l-.001-14.656v-.013-.174c-2.971-3.127-4.749-7.315-4.8-11.833h-1.213c-1.103 0-2-.897-2-2v-4.42h-8.417v6.491c0 4.528-3.684 8.211-8.211 8.211-4.528 0-8.212-3.683-8.212-8.211v-6.491h-10.42v8.477c0 .552-.448 1-1 1s-1-.448-1-1v-8.477h-6.414v13.648c.424-.176.888-.276 1.375-.276h13.574c1.987 0 3.604 1.618 3.604 3.605v1.153c8.831.387 16.311 6.043 19.378 13.894 3.38.903 6.069 3.507 7.078 6.842" fill="#36393f"/><path d="m111.7019 41.3908c-4.29 0-7.78 3.49-7.78 7.78v2.24h59.501c1.654 0 3 1.345 3 3v9.019h18.85l6.085-6.085c.603-.603 1.404-.956 2.255-.994l7.805-.351c1.03-.051 2.007.366 2.687 1.128.308.346.701.77 1.139 1.201.405.398.849.429 1.161.381.306-.183.613-.362.924-.536.161-.202.291-.477.291-.859v-4.103c0-1.877 1.527-3.404 3.404-3.404h7.212 2.549 12.02c.552 0 1 .448 1 1v3.564c4.137.935 8.053 2.559 11.661 4.838l2.526-2.526c.375-.375 1.039-.375 1.414 0l4.444 4.445 18.112-18.113c-1.314-1.015-2.956-1.625-4.741-1.625zm143.562 21.1519 4.444 4.444c.39.39.39 1.023 0 1.414l-2.526 2.526c2.279 3.608 3.904 7.523 4.839 11.661h3.564c.552 0 1 .448 1 1v14.569c0 .553-.448 1-1 1h-3.564c-.935 4.138-2.56 8.054-4.839 11.662l2.526 2.526c.39.391.39 1.024 0 1.414l-6.745 6.745v62.13h10.218c.552 0 1 .448 1 1v27.837h3.04c4.291 0 7.781-3.49 7.781-7.78v-155.52c0-1.785-.611-3.426-1.626-4.74z" fill="#72767d"/><path d="m200.0798 58.238.184-.184-.451.02c.09.054.179.107.267.164" fill="#72767d"/><path d="m182.051 185.634h-10.02v6.814h4.61c.552 0 1 .448 1 1v11.219c0 .552-.448 1-1 1h-4.61v6.814h10.02z" fill="#4f545c"/><path d="m194.067 202.064h6.013v-6.013h-6.013z" fill="#36393e"/><path d="m209.693 202.064h6.013v-6.013h-6.013z" fill="#36393e"/><path d="m226.52 202.064h25.244v-6.013h-25.244z" fill="#36393e"/><path d="m169.628 203.667h6.013v-9.218h-6.013z" fill="#4f545c"/><path d="m185.4036 72.8605c-1.703 2.876-2.986 5.967-3.812 9.186-.048.188-.112.369-.189.542h4.052 3.565c.934-4.139 2.559-8.055 4.838-11.662l-2.233-2.233h-6.788c1.14 1.146 1.354 2.837.567 4.167m20.1704 49.6744-.221.221c.131-.052.261-.09.394-.117-.057-.036-.116-.068-.173-.104m-28.7344-36.543v9.761c0 .774.63 1.404 1.404 1.404.467 0 .908.097 1.313.257.177-.155.402-.257.655-.257h4.243v-12.569h-6.15c-.835 0-1.465.63-1.465 1.404m62.1035 4.8808c0-7.402-6.021-13.423-13.423-13.423-.139 0-.273.016-.41.02 4.663 2.656 7.82 7.664 7.82 13.403s-3.157 10.747-7.82 13.402c.137.005.271.021.41.021 7.402 0 13.423-6.021 13.423-13.423m-29.3232 33.8804v3.78c0 .774.63 1.404 1.404 1.404h6.212v-2.564c-2.637-.595-5.182-1.474-7.616-2.62m-28.0283-25.0547c.826 3.219 2.109 6.31 3.812 9.186.789 1.332.573 3.028-.524 4.126-.013.012-.017.028-.029.042h6.774l2.233-2.234c-2.279-3.607-3.904-7.523-4.838-11.662h-3.565-4.052c.077.173.141.354.189.542m12.1157 23.6866 6.462.211-8.545-8.544h-6.787l7.923 7.923c.253.253.59.398.947.41m-.0049-65.0362c-.352.016-.682.161-.93.41l-7.935 7.935h6.787l8.455-8.456c-.087-.057-.177-.11-.266-.163zm15.9175-5.1372v3.78c2.434-1.146 4.979-2.025 7.616-2.62v-2.564h-6.212c-.774 0-1.404.63-1.404 1.404" fill="#4f545c"/><path d="m212.0964 90.8727c0 6.007 3.966 11.104 9.417 12.812 5.451-1.708 9.417-6.805 9.417-12.812s-3.966-11.104-9.417-12.812c-5.451 1.708-9.417 6.805-9.417 12.812" fill="#36393f"/><path d="m201.2825 90.8727c0-13.365 10.873-24.238 24.237-24.238.553 0 1 .448 1 1s-.447 1-1 1c-12.261 0-22.237 9.976-22.237 22.238s9.976 22.237 22.237 22.237c12.262 0 22.238-9.975 22.238-22.237 0-4.22-1.186-8.325-3.432-11.873-.294-.467-.156-1.085.311-1.38.467-.296 1.084-.156 1.38.311 2.447 3.868 3.741 8.343 3.741 12.942 0 13.364-10.873 24.237-24.238 24.237-13.364 0-24.237-10.873-24.237-24.237m39.543-16.132c-1.43-1.358-3.034-2.52-4.766-3.455-.486-.262-.667-.869-.405-1.354.262-.487.868-.669 1.355-.406 1.887 1.018 3.634 2.285 5.193 3.764.401.38.417 1.013.037 1.414-.196.207-.46.312-.725.312-.248 0-.495-.092-.689-.275m-30.729 16.132c0-8.504 6.919-15.423 15.423-15.423 8.505 0 15.424 6.919 15.424 15.423s-6.919 15.423-15.424 15.423c-8.504 0-15.423-6.919-15.423-15.423m-4.106-29.55c-.397.262-.923.209-1.259-.127l-2.391-2.39-8.888 8.888 2.391 2.39c.336.337.389.863.127 1.26-2.523 3.809-4.26 7.995-5.163 12.443-.095.466-.504.801-.98.801h-3.373v12.569h3.373c.476 0 .885.335.98.801.903 4.448 2.64 8.635 5.163 12.444.262.397.209.924-.127 1.26l-2.391 2.39 8.888 8.888 2.391-2.391c.336-.335.862-.389 1.259-.126 3.81 2.523 7.996 4.26 12.444 5.162.466.095.801.505.801.98v3.372h1.549 11.02v-3.372c0-.475.335-.885.801-.98 4.448-.902 8.635-2.64 12.444-5.162.396-.263.923-.209 1.259.126l2.391 2.391 8.887-8.888-2.39-2.39c-.337-.336-.39-.863-.127-1.26 2.523-3.81 4.26-7.997 5.163-12.444.095-.466.505-.801.98-.801h3.372v-12.569h-3.372c-.475 0-.885-.335-.98-.801-.903-4.447-2.64-8.634-5.163-12.443-.263-.397-.21-.923.127-1.26l2.39-2.39-8.887-8.888-2.391 2.39c-.336.336-.862.389-1.259.127-3.81-2.523-7.997-4.26-12.444-5.163-.466-.095-.801-.504-.801-.98v-3.372h-11.02-1.549v3.372c0 .476-.335.885-.801.98-4.447.903-8.633 2.64-12.444 5.163" fill="#72767d"/><path d="m192.7385 174.9767h5.672v-.757c-2.141-.517-4.176-1.355-6.079-2.483v2.833c0 .224.183.407.407.407m-14.5317-9.8828h5.458l.952-.953c-1.21-1.978-2.093-4.108-2.635-6.35h-1.757c-.006 0-.01-.003-.016-.003-.005 0-.01.003-.015.003h-4.219c.474 1.774 1.185 3.479 2.126 5.067.412.697.435 1.533.106 2.236m4.4106 6.0479 3.959.129c.139-.001.294-.072.362-.196.074-.137.162-.288.262-.445l-3.536-3.536h-5.251l3.929 3.929c.073.073.171.116.275.119m-2.3925-23.8775h.801.956c.542-2.242 1.425-4.372 2.635-6.35l-1.02-1.021c-.106.038-.217.068-.335.068h-5.046c-.006 0-.011-.003-.017-.003.336.712.313 1.545-.098 2.239-.941 1.589-1.652 3.294-2.127 5.067zm2.3945-13.3574c-.102.004-.197.047-.27.119l-3.936 3.936h4.848c.119 0 .23.029.335.068l3.766-3.767c-.205-.191-.417-.371-.634-.541zm9.7124-3.4209v2.402c0 .162-.039.315-.07.471 1.922-1.149 3.981-1.999 6.149-2.523v-.757h-5.672c-.224 0-.407.183-.407.407" fill="#36393f"/><path d="m214.4475 152.528c0-5.941-4.833-10.774-10.774-10.774-.659 0-1.302.068-1.928.183 4.16 1.72 7.096 5.817 7.096 10.591 0 4.773-2.936 8.871-7.095 10.591.626.114 1.268.182 1.927.182 5.941 0 10.774-4.833 10.774-10.773" fill="#72767d"/><path d="m179.2249 155.7912v-6.527h-4.882c-.096 0-.182-.029-.269-.055-.158.033-.319.055-.485.055-.26 0-.443.183-.443.407v5.713c0 .224.183.407.407.407.089 0 .175.012.261.021.036-.004.068-.021.106-.021zm27.6162-3.2632c0-4.864-3.691-8.878-8.418-9.399-3.291 1.846-5.523 5.364-5.523 9.399 0 4.034 2.232 7.553 5.524 9.399 4.727-.521 8.417-4.536 8.417-9.399" fill="#36393f"/><path d="m190.9001 152.528c0-7.043 5.73-12.774 12.773-12.774 7.044 0 12.774 5.731 12.774 12.774s-5.73 12.773-12.774 12.773c-7.043 0-12.773-5.73-12.773-12.773zm25.234-17.076c-.337.337-.861.389-1.259.127-2.185-1.447-4.586-2.443-7.137-2.961-.466-.095-.801-.505-.801-.98v-1.559h-6.527v1.559c0 .475-.335.885-.801.98-2.55.518-4.951 1.514-7.136 2.961-.398.262-.923.21-1.26-.127l-1.105-1.106-4.616 4.616 1.106 1.106c.337.336.389.862.127 1.259-1.448 2.185-2.444 4.586-2.961 7.136-.095.466-.505.801-.98.801h-1.559v6.527h1.559c.475 0 .885.335.98.801.517 2.551 1.513 4.952 2.961 7.137.262.396.21.923-.127 1.259l-1.106 1.106 4.616 4.615 1.105-1.106c.337-.336.864-.39 1.26-.126 2.185 1.447 4.586 2.443 7.136 2.961.466.094.801.504.801.98v1.559h6.527v-1.559c0-.476.335-.886.801-.98 2.551-.518 4.952-1.514 7.137-2.961.396-.264.922-.21 1.259.126l1.106 1.106 4.615-4.615-1.106-1.106c-.336-.336-.389-.863-.127-1.259 1.447-2.185 2.444-4.586 2.962-7.137.094-.466.504-.801.98-.801h1.558v-6.527h-1.558c-.476 0-.886-.335-.98-.8-.518-2.551-1.515-4.952-2.962-7.137-.262-.397-.209-.924.127-1.259l1.106-1.106-4.615-4.616zm-106.1998-75.029c0-.552.448-1 1-1h28.427c.552 0 1 .448 1 1h7.234c0-.552.447-1 1-1h8.814c.552 0 1 .448 1 1v70.514c0 .552-.448 1-1 1h-46.475c-.552 0-1-.448-1-1zm-6.013 77.527h9.273c.553 0 1 .448 1 1h4.355c0-.552.448-1 1-1h43.873c.552 0 1-.448 1-1v-82.54c0-.551-.448-1-1-1h-59.501z" fill="#4f545c"/><path d="m152.6018 89.8806c0 .552-.448 1-1 1h-12.423c-.553 0-1-.448-1-1v-3.609c0-.553.447-1 1-1h12.423c.552 0 1 .447 1 1zm-10.417 9.615c0 .552-.448 1-1 1h-6.814c-.552 0-1-.448-1-1v-3.609c0-.552.448-1 1-1h6.814c.552 0 1 .448 1 1zm-12.02 0c0 .552-.447 1-1 1h-11.622c-.552 0-1-.448-1-1v-3.609c0-.552.448-1 1-1h11.622c.553 0 1 .448 1 1zm5.61-22.84c0-.552.448-1 1-1h8.417c.552 0 1 .448 1 1v3.609c0 .553-.448 1-1 1h-8.417c-.552 0-1-.447-1-1zm-18.232-5.006c-.552 0-1-.448-1-1v-3.609c0-.553.448-1 1-1h22.841c.552 0 1 .447 1 1v3.609c0 .552-.448 1-1 1zm10.219 14.622c0-.553.447-1 1-1h5.212c.552 0 1 .447 1 1v3.609c0 .552-.448 1-1 1h-5.212c-.553 0-1-.448-1-1zm-3.205 0v3.609c0 .552-.448 1-1 1h-6.014c-.552 0-1-.448-1-1v-3.609c0-.553.448-1 1-1h6.014c.552 0 1 .447 1 1zm-7.014-5.007c-.552 0-1-.447-1-1v-3.609c0-.552.448-1 1-1h14.027c.552 0 1 .448 1 1v3.609c0 .553-.448 1-1 1zm21.818-19.842h-27.426v68.515h44.475v-68.515h-7.815c-.552 0-1-.447-1-1h-7.234c0 .553-.447 1-1 1z" fill="#36393f"/><path d="m159.617 178.025v-4.42h-10.022v4.42z" fill="#36393f"/><path d="m143.1394 171.6047c-.015-.068-.041-.131-.041-.204v-20.232h-18.343v20.436h12.423v-13.217c0-.553.448-1 1-1s1 .447 1 1v13.217zm20.2832-20.4361h-18.324v14.827h19.122c.072 0 .135.027.202.041v-13.868c0-.551-.449-1-1-1" fill="#4f545c"/><path d="m103.922 171.605h18.833v-20.436h-18.833z" fill="#4f545c"/><path d="m163.4226 171.6047c.551 0 1-.449 1-1v-2.65c-.067.015-.13.041-.202.041h-19.122v3.405c0 .073-.027.136-.041.204zm118.5679 88.1655c.115-.354.084-.734-.086-1.07-.172-.335-.461-.584-.815-.699l-8.194-2.662-.867 2.67 8.193 2.662c.354.116.734.084 1.07-.087.336-.17.584-.46.699-.814m-10.1929-7.5244c.239-.736-.165-1.53-.901-1.769-.144-.047-.29-.069-.433-.069-.592 0-1.144.378-1.336.97l-2.476 7.621c-.24.736.165 1.53.901 1.769.735.239 1.53-.165 1.769-.901zm56.0024-5.5562-1.274-2.501-7.677 3.911c-.332.169-.578.46-.695.818-.116.358-.087.738.082 1.07s.46.578.818.695c.357.116.738.089 1.07-.081zm1.8277-7.0029c-.169-.332-.459-.579-.818-.695-.144-.047-.292-.071-.44-.071-.217 0-.432.051-.63.152-.69.352-.965 1.199-.613 1.889l3.638 7.139c.169.332.459.579.818.695.358.116.737.087 1.069-.081.332-.17.579-.46.696-.819.116-.358.087-.738-.082-1.069zm-188.2442-169.0376v-3.609c0-.552-.448-1-1-1h-22.84c-.553 0-1 .448-1 1v3.609c0 .552.447 1 1 1h22.84c.552 0 1-.448 1-1m-8.8139 9.6157v-3.609c0-.553-.448-1-1-1h-14.026c-.553 0-1 .447-1 1v3.609c0 .552.447 1 1 1h14.026c.552 0 1-.448 1-1m4.2051 1h8.417c.552 0 1-.448 1-1v-3.609c0-.553-.448-1-1-1h-8.417c-.552 0-1 .447-1 1v3.609c0 .552.448 1 1 1m-19.2315 4.0064c-.552 0-1 .448-1 1v3.609c0 .553.448 1 1 1h6.013c.552 0 1-.447 1-1v-3.609c0-.552-.448-1-1-1zm11.2183 5.6094h5.212c.552 0 1-.448 1-1v-3.609c0-.553-.448-1-1-1h-5.212c-.552 0-1 .447-1 1v3.609c0 .552.448 1 1 1m22.8403-5.6094h-12.423c-.553 0-1 .448-1 1v3.609c0 .553.447 1 1 1h12.423c.552 0 1-.447 1-1v-3.609c0-.552-.448-1-1-1m-22.4365 9.6157h-11.622c-.552 0-1 .448-1 1v3.609c0 .552.448 1 1 1h11.622c.552 0 1-.448 1-1v-3.609c0-.552-.448-1-1-1m12.0195 0h-6.814c-.552 0-1 .448-1 1v3.609c0 .552.448 1 1 1h6.814c.552 0 1-.448 1-1v-3.609c0-.552-.448-1-1-1" fill="#4f545c"/><path d="m120.4749 191.7106v-1.128c0-.885-.72-1.605-1.604-1.605h-13.575c-.884 0-1.605.72-1.605 1.605v1.128zm27.1098 26.67.5-1.667c1.252-.03 1.548-1.724.11-2.6-.596-.362-.477-1.594-.693-2.233-.5-1.478-2.123-2.825-3.25-3.853-.36-.243-1.217.184-1.615 0 .461 1.764.708 3.613.708 5.52v8.416c0 .332-.01.661-.025.99.155-.091.784.446.932.346 1.829-1.667 3.333-2.25 3.333-4.919m-70.9389-2.9883v.551c0 2.67 1.777 5.702 3.606 7.369.068.046.52-.553.59-.509-.01-.279-.021-.558-.021-.84v-8.416c0-1.859.235-3.663.674-5.386-.298.151-1.385-.186-1.66 0-1.829 1.667-3.189 4.562-3.189 7.231" fill="#72767d"/><path d="m82.8884 223.2995c.671 9.994 8.761 17.964 18.803 18.451v-4.218c-8.79-.403-16.151-6.233-18.803-14.233m58.3887.0005c-2.652 8-10.013 13.829-18.802 14.233v4.218c10.042-.488 18.131-8.458 18.802-18.451" fill="#4f545c"/><path d="m122.0178 229.1901h-19.869c-7.733 0-14.023-6.291-14.023-14.022v-2.13c0-2.986.945-5.75 2.542-8.027 2.263 1.228 2.666-1.815 3.93-2.947 2.276-1.597 4.565-3.049 7.551-3.049.552 0 1 .448 1 1h3.201c0-.552.447-1 1-1h4.733c.553 0 1 .448 1 1h7.935c0-.552.448-1 1-1 2.986 0 5.124 1.935 7.4 3.532 1.407.862 3.218 1.057 4.08 2.463 1.597 2.277 2.542 5.042 2.542 8.028v2.13c0 7.731-6.29 14.022-14.022 14.022m19.259-5.89c.03-.444.068-.886.068-1.337v-8.416c0-10.938-8.898-19.836-19.836-19.836h-18.851c-10.938 0-19.837 8.898-19.837 19.836v8.416c0 .451.038.893.068 1.336 2.651 8 10.013 13.83 18.802 14.234v-2.866c0-1.27 1.033-2.303 2.303-2.303h16.179c1.269 0 2.302 1.033 2.302 2.303v2.866c8.789-.404 16.15-6.234 18.802-14.233" fill="#72767d"/><path d="m126.6658 217.779-2.787-2.979-4.51 5.989c-.269.357-.683.575-1.13.595-.446.02-.879-.159-1.179-.49l-4.05-4.46-3.658 4.41c-.287.346-.711.542-1.154.542-.061 0-.122-.003-.182-.01-.508-.063-.948-.378-1.17-.839l-3.092-6.423-2.916 6.394c-.222.49-.69.822-1.225.872-.531.056-1.055-.189-1.365-.629l-1.956-2.774h-5.39c-.158 0-.308-.031-.451-.076 1.243 5.315 6.01 9.289 11.698 9.289h19.869c5.561 0 10.238-3.8 11.606-8.935h-5.862c-.415 0-.812-.172-1.096-.476" fill="#36393f"/><path d="m102.1487 201.0153c-6.629 0-12.023 5.394-12.023 12.023v2.129c0 .011.002.021.002.032.226-.138.489-.222.774-.222h6.168c.488 0 .945.237 1.226.636l.897 1.272 3.159-6.929c.241-.529.767-.872 1.349-.878.59.03 1.115.326 1.367.85l3.468 7.201 3.269-3.941c.277-.334.686-.532 1.12-.542.431 0 .852.17 1.144.492l3.994 4.398 4.494-5.967c.267-.354.676-.573 1.119-.596.438-.015.872.149 1.175.474l3.562 3.807h5.623c0-.029.005-.057.005-.087v-2.129c0-6.629-5.393-12.023-12.023-12.023-.552 0-1-.448-1-1h-7.934c0 .552-.448 1-1 1h-4.734c-.553 0-1-.448-1-1h-3.201c0 .552-.448 1-1 1" fill="#36393f"/><path d="m120.4749 235.6677c0-.167-.136-.302-.302-.302h-16.179c-.167 0-.303.135-.303.302v4.917h16.784z" fill="#72767d"/><path d="m103.691 241.8h16.784v-2.216h-16.784z" fill="#4f545c"/><path d="m375.4587 24.1247h2.404c2.761 0 5.007 2.246 5.007 5.007s-2.246 5.006-5.007 5.006h-2.404c-2.761 0-5.006-2.245-5.006-5.006s2.245-5.007 5.006-5.007zm-18.316-16.392c-5.196 0-9.917 2.024-13.457 5.305h4.315c6.305 0 11.435 5.13 11.435 11.435v7.305c0 6.305-5.13 11.435-11.435 11.435h-8.185c1.194 2.139 2.767 4.037 4.635 5.596h14.889c6.569 0 12.235-3.802 14.961-9.317-5.438-.327-9.764-4.842-9.764-10.36 0-3.498 1.743-6.739 4.663-8.672.461-.305 1.081-.179 1.386.282s.179 1.081-.282 1.386c-2.359 1.561-3.767 4.18-3.767 7.004 0 4.627 3.764 8.391 8.391 8.391h3.466c4.627 0 8.392-3.764 8.392-8.391 0-.534.421-.961.947-.989-.461-4.397-3.953-7.89-8.35-8.35-.029.526-.456.947-.989.947h-3.466c-.552 0-1-.448-1-1s.448-1 1-1h1.109v-3.323c0-3.186-.908-6.151-2.456-8.684h.612c0-.552.448-1 1-1 .325 0 .648.011.97.025v-1.154c0-.884-.721-1.604-1.605-1.604h-13.575c-.884 0-1.604.72-1.604 1.604v1.129h8.017c.552 0 1 .448 1 1 0 .553-.448 1-1 1z" fill="#72767d"/><path d="m349.7405 25.4797c1.729 0 3.13 1.402 3.13 3.13 0 1.729-1.401 3.131-3.13 3.131s-3.131-1.402-3.131-3.131c0-1.728 1.402-3.13 3.131-3.13zm-1.74 15.733c5.202 0 9.435-4.233 9.435-9.435v-7.305c0-.098-.011-.194-.014-.292-1.675-3.525-5.258-5.969-9.421-5.969h-8.34c-1.499 2.789-2.354 5.975-2.354 9.358v6.012c0 2.703.547 5.28 1.531 7.631z" fill="#4f545c"/><path d="m357.4211 24.1809c-.156-5.067-4.317-9.143-9.421-9.143h-6.218c-.804.984-1.515 2.046-2.121 3.174h8.339c4.163 0 7.746 2.444 9.421 5.969" fill="#36393f"/><path d="m349.7405 31.7409c1.729 0 3.13-1.402 3.13-3.131 0-1.728-1.401-3.13-3.13-3.13s-3.131 1.402-3.131 3.13c0 1.729 1.402 3.131 3.131 3.131" fill="#72767d"/><path d="m376.0364 15.4162v3.323h2.357c.553 0 1 .448 1 1 0 .019-.009.035-.01.053 4.396.461 7.889 3.954 8.349 8.35.018-.001.034-.011.053-.011.552 0 1 .448 1 1 0 5.73-4.662 10.392-10.392 10.392h-3.465c-.212 0-.419-.019-.628-.032-2.725 5.515-8.392 9.318-14.96 9.318h-14.889c3.442 2.874 7.867 4.609 12.691 4.609h18.05c10.938 0 19.837-8.899 19.837-19.837v-6.012c0-10.938-8.899-19.836-19.837-19.836-.552 0-1-.448-1-1v-.001h-.612c1.548 2.533 2.456 5.499 2.456 8.684" fill="#4f545c"/><path d="m375.4587 32.1379h2.404c1.658 0 3.007-1.349 3.007-3.006 0-1.659-1.349-3.007-3.007-3.007h-2.404c-1.658 0-3.006 1.348-3.006 3.007 0 1.657 1.348 3.006 3.006 3.006m-7.1528 70.8984c-1.384 0-2.51 1.126-2.51 2.51s1.126 2.51 2.51 2.51 2.51-1.126 2.51-2.51-1.126-2.51-2.51-2.51m-243.4551 108.4107c-.303-.324-.737-.488-1.175-.474-.443.024-.852.243-1.119.596l-4.495 5.967-3.993-4.398c-.292-.322-.714-.492-1.144-.492-.434.01-.843.208-1.12.542l-3.269 3.942-3.468-7.202c-.252-.524-.777-.82-1.367-.849-.582.006-1.108.348-1.349.878l-3.159 6.928-.897-1.272c-.281-.398-.738-.636-1.226-.636h-6.168c-.285 0-.548.084-.775.222.003.93.121 1.832.324 2.702.143.045.293.076.451.076h5.39l1.955 2.774c.311.44.834.685 1.366.629.535-.05 1.003-.382 1.225-.871l2.916-6.395 3.092 6.423c.222.461.662.776 1.17.839.06.007.121.01.182.01.443 0 .867-.196 1.154-.542l3.658-4.41 4.05 4.46c.3.331.733.51 1.179.491.446-.021.861-.239 1.13-.596l4.51-5.989 2.787 2.979c.284.304.681.476 1.096.476h5.862c.255-.96.404-1.963.412-3h-5.623z" fill="#4f545c"/><g fill="#1f2225"><path d="m90.9021 52.4108c-.552 0-1 .448-1 1v21.053c0 .552.448 1 1 1s1-.448 1-1v-21.053c0-.552-.448-1-1-1m138.6177 143.6402h19.244c1.657 0 3 1.343 3 3v.013c0 1.656-1.343 3-3 3h-19.244c-1.657 0-3-1.344-3-3v-.013c0-1.657 1.343-3 3-3m-5 1v6.014c0 1.657 1.343 3 3 3h23.244c1.657 0 3-1.343 3-3v-6.014c0-1.657-1.343-3-3-3h-23.244c-1.657 0-3 1.343-3 3m-27.4395 5.0127h-.013c-1.657 0-3-1.343-3-3v-.013c0-1.656 1.343-3 3-3h.013c1.657 0 3 1.344 3 3v.013c0 1.657-1.343 3-3 3m2-8.013h-4.013c-1.657 0-3 1.344-3 3v6.014c0 1.657 1.343 3 3 3h4.013c1.657 0 3-1.343 3-3v-6.014c0-1.656-1.343-3-3-3m13.6255 8.013h-.013c-1.657 0-3-1.343-3-3v-.013c0-1.656 1.343-3 3-3h.013c1.657 0 3 1.344 3 3v.013c0 1.657-1.343 3-3 3m2-8.013h-4.013c-1.657 0-3 1.344-3 3v6.014c0 1.657 1.343 3 3 3h4.013c1.657 0 3-1.343 3-3v-6.014c0-1.656-1.343-3-3-3m10.814-78.9407c13.365 0 24.238-10.873 24.238-24.237 0-4.599-1.294-9.075-3.741-12.943-.296-.466-.913-.607-1.38-.31-.467.295-.606.913-.311 1.38 2.245 3.547 3.432 7.653 3.432 11.873 0 12.261-9.976 22.237-22.238 22.237s-22.237-9.976-22.237-22.237c0-12.262 9.975-22.238 22.237-22.238.552 0 1-.448 1-1s-.448-1-1-1c-13.364 0-24.237 10.873-24.237 24.238 0 13.364 10.873 24.237 24.237 24.237m10.54-43.8242c1.731.935 3.335 2.097 4.766 3.455.193.183.441.274.689.274.264 0 .528-.104.725-.311.38-.401.363-1.034-.037-1.414-1.559-1.48-3.307-2.746-5.194-3.764-.486-.263-1.093-.081-1.354.406-.262.485-.081 1.092.405 1.354"/><path d="m238.9431 90.8727c0 7.402-6.021 13.423-13.423 13.423-.139 0-.273-.016-.41-.021 4.663-2.655 7.82-7.663 7.82-13.402s-3.157-10.747-7.82-13.403c.137-.004.271-.02.41-.02 7.402 0 13.423 6.021 13.423 13.423m-26.847 0c0-2.183.524-4.246 1.453-6.07 3.283-6.449 12.645-6.449 15.929 0 .928 1.824 1.452 3.887 1.452 6.07s-.524 4.246-1.452 6.07c-3.284 6.449-12.646 6.449-15.929 0-.929-1.824-1.453-3.887-1.453-6.07m-2 0c0 8.504 6.919 15.423 15.424 15.423 8.504 0 15.423-6.919 15.423-15.423s-6.919-15.423-15.423-15.423c-8.505 0-15.424 6.919-15.424 15.423m-6.4225 72.4288c-.659 0-1.301-.069-1.927-.183 4.159-1.72 7.094-5.817 7.094-10.59 0-4.774-2.936-8.872-7.095-10.592.626-.114 1.269-.182 1.928-.182 5.941 0 10.774 4.833 10.774 10.774 0 5.94-4.833 10.773-10.774 10.773m-10.773-10.773c0-2.165.642-4.181 1.746-5.87 1.891-2.894 5.904-3.687 8.611-1.536 2.182 1.734 3.583 4.408 3.583 7.406 0 2.996-1.401 5.671-3.583 7.404-2.707 2.151-6.719 1.359-8.611-1.535-1.104-1.689-1.746-3.705-1.746-5.869m10.773-12.774c-7.043 0-12.773 5.73-12.773 12.774 0 7.043 5.73 12.773 12.773 12.773s12.774-5.73 12.774-12.773c0-7.044-5.731-12.774-12.774-12.774m-45.2642-8.8173v-70.514c0-.552-.448-1-1-1h-8.814c-.553 0-1 .448-1 1s.447 1 1 1h5.814c1.104 0 2 .895 2 2v62.513c0 1.104-.896 2-2 2h-40.475c-1.105 0-2-.896-2-2v-62.513c0-1.105.895-2 2-2h30.431c.552 0 .999-.448 1-1 0-.552-.448-1-1-1h-33.431c-.552 0-1 .448-1 1v70.514c0 .552.448 1 1 1h46.475c.552 0 1-.448 1-1m123.5811 128.833c-.115.354-.363.644-.699.814-.336.171-.716.203-1.07.087l-6.858-2.228c-.738-.24-1.142-1.032-.902-1.769s1.031-1.141 1.769-.901l6.859 2.228c.354.115.643.364.815.699.17.336.201.716.086 1.07m-10.193-7.524-2.476 7.62c-.239.737-1.034 1.141-1.769.902-.736-.24-1.141-1.033-.901-1.769l2.476-7.621c.192-.593.744-.97 1.336-.97.143 0 .289.022.433.069.736.239 1.14 1.032.901 1.769m9.91 3.853-8.008-3.236c.58-1.784-.4-3.709-2.185-4.289-1.782-.578-3.709.4-4.29 2.186l-2.476 7.62c-.58 1.786.401 3.709 2.186 4.29.348.113.702.167 1.05.167 1.434 0 2.772-.916 3.239-2.353l.186-.573 8.194 2.663c.348.113.702.167 1.05.167 1.435-.001 2.772-.916 3.239-2.353.281-.862.207-1.784-.207-2.596-.413-.812-1.116-1.413-1.978-1.693m51.6399-8.203c-.117.358-.363.649-.695.818-.332.168-.712.198-1.07.082-.359-.117-.649-.363-.818-.695l-3.638-7.14c-.352-.69-.076-1.537.614-1.888.197-.101.412-.152.629-.152.148 0 .296.023.44.07.359.117.649.363.818.695v.001l3.638 7.139c.169.332.199.712.082 1.07zm-13.224 2.705c-.332.17-.712.197-1.069.082-.359-.117-.649-.364-.819-.696-.169-.331-.198-.712-.081-1.07.116-.358.363-.648.694-.817h.001l6.426-3.275c.69-.351 1.535-.077 1.887.613v.001c.352.69.078 1.536-.613 1.888zm11.287-11.823c-.412-.807-1.116-1.407-1.982-1.689-.868-.281-1.789-.21-2.597.202-1.672.852-2.339 2.906-1.487 4.578l.273.537-7.676 3.911c-.808.412-1.408 1.116-1.689 1.982-.282.867-.21 1.789.201 2.596.412.808 1.116 1.408 1.982 1.689.349.114.705.17 1.06.17.529 0 1.053-.125 1.537-.371l7.676-3.911.274.537c.411.807 1.115 1.407 1.982 1.689.348.113.705.169 1.06.169.529 0 1.052-.125 1.535-.371.809-.412 1.409-1.115 1.69-1.982.282-.866.21-1.788-.201-2.596zm63.6191-205.197c0 10.956-8.881 19.837-19.837 19.837h-18.05c-4.824 0-9.249-1.735-12.692-4.609-1.401-1.17-2.636-2.53-3.67-4.04-.451-.658.038-1.557.836-1.557h6.384c6.315 0 11.435-5.12 11.435-11.435v-7.304c0-6.316-5.119-11.435-11.435-11.435h-1.463c-.973 0-1.384-1.266-.583-1.818 3.186-2.194 7.035-3.487 11.188-3.487h10.253c.552 0 1-.448 1-1s-.448-1-1-1h-8.017v-1.129c0-.886.718-1.605 1.605-1.605h13.574c.886 0 1.605.719 1.605 1.605v1.153c-.322-.014-.645-.024-.97-.024-.552 0-1 .448-1 .999v.001c0 .552.448 1 1 1 10.938 0 19.837 8.898 19.837 19.836zm-24.459 44.068c0 1.205-.98 2.185-2.185 2.185s-2.185-.98-2.185-2.185.98-2.185 2.185-2.185 2.185.98 2.185 2.185zm1.205 2.447c.328-.454.982-.516 1.434-.185 2.435 1.782 6.248 5.226 7.324 9.922.722 3.152.092 6.431-1.85 9.771-.386.665-1.355.665-1.739-.002l-2.315-4.009c-.179-.309-.509-.5-.866-.5h-10.916c-.357 0-.687.191-.866.5l-2.315 4.009c-.384.667-1.353.667-1.74.002-1.94-3.34-2.571-6.619-1.849-9.771 1.094-4.772 5.009-8.248 7.436-10.003.46-.333 1.122-.261 1.447.205.754 1.086 2.005 1.799 3.425 1.799 1.394 0 2.63-.687 3.39-1.738zm-.899 33.903h-5.142c-1.429 0-2.75-.763-3.464-2l-2.571-4.453c-.714-1.237-.714-2.762 0-4l2.571-4.453c.714-1.238 2.035-2 3.464-2h5.142c1.429 0 2.75.762 3.465 2l2.57 4.453c.714 1.238.714 2.763 0 4l-2.57 4.453c-.715 1.237-2.036 2-3.465 2zm-33.57-80.418v-6.012c0-3.383.855-6.568 2.354-9.358.243-.45.502-.891.777-1.32.739-1.153 2.012-1.853 3.382-1.853h4.181c5.104 0 9.264 4.076 9.421 9.143.003.097.014.193.014.292v7.304c0 5.211-4.224 9.435-9.435 9.435h-6.269c-1.817 0-3.445-1.214-3.872-2.981-.361-1.491-.553-3.048-.553-4.65zm40.856-27.641v-1.336c0-1.991-1.614-3.605-3.605-3.605h-13.574c-1.991 0-3.605 1.614-3.605 3.605v1.129h-.236c-12.06 0-21.836 9.776-21.836 21.836v6.012c0 12.06 9.776 21.837 21.837 21.837h4.276c3.251 0 5.886 2.636 5.886 5.887v12.095c0 .074.027.14.043.21-1.578.406-2.794 1.701-3.076 3.325-1.51.872-8.484 5.237-10.141 12.439-.998 4.337.145 8.812 3.396 13.301.066.092.158.147.245.208l-1.248 2.163c-.179.31-.179.691 0 1l5.457 9.453c.179.309.509.5.866.5h10.916c.357 0 .687-.191.866-.5l5.458-9.453c.178-.309.178-.69 0-1l-1.249-2.163c.087-.061.179-.116.245-.208 3.252-4.489 4.394-8.964 3.397-13.301-1.597-6.939-8.146-11.255-9.972-12.341-.257-1.722-1.552-3.104-3.236-3.47.01-.055.033-.106.033-.163v-12.095c0-3.251 2.636-5.887 5.887-5.887 12.06 0 21.837-9.777 21.837-21.837v-6.012c0-11.032-8.227-20.175-18.867-21.629z"/><path d="m387.7854 28.1315c-.019 0-.035.01-.053.011-.526.029-.947.455-.947.989 0 4.627-3.765 8.392-8.392 8.392h-3.465c-4.627 0-8.392-3.765-8.392-8.392 0-2.824 1.408-5.443 3.767-7.004.461-.305.587-.925.282-1.386-.304-.461-.925-.587-1.385-.282-2.921 1.933-4.664 5.174-4.664 8.672 0 5.518 4.327 10.033 9.764 10.36.209.013.416.032.628.032h3.465c5.73 0 10.392-4.662 10.392-10.392 0-.552-.448-1-1-1m-12.8574-7.3921h3.466c.533 0 .96-.421.989-.947.001-.018.011-.034.011-.053 0-.552-.448-1-1-1h-2.358-1.108c-.552 0-1 .448-1 1s.448 1 1 1"/><path d="m375.4587 26.1247h2.404c1.658 0 3.007 1.349 3.007 3.007s-1.349 3.006-3.007 3.006h-2.404c-1.658 0-3.006-1.348-3.006-3.006s1.348-3.007 3.006-3.007m0 8.013h2.404c2.761 0 5.007-2.245 5.007-5.006s-2.246-5.007-5.007-5.007h-2.404c-2.761 0-5.006 2.246-5.006 5.007s2.245 5.006 5.006 5.006m-7.1528 73.9186c-1.384 0-2.51-1.126-2.51-2.51s1.126-2.51 2.51-2.51 2.51 1.126 2.51 2.51-1.126 2.51-2.51 2.51m0-7.02c-2.487 0-4.51 2.023-4.51 4.51s2.023 4.51 4.51 4.51 4.51-2.023 4.51-4.51-2.023-4.51-4.51-4.51m-260.9565 99.979h11.739c.553 0 1-.448 1-1s-.447-1-1-1h-11.739c-.552 0-1 .448-1 1s.448 1 1 1"/><path d="m130.0457 201.5578c-2.277-1.597-5.042-2.542-8.028-2.542-.552 0-1 .447-1 1 0 .552.448 1 1 1 6.63 0 12.023 5.393 12.023 12.022v2.13c0 .029-.005.057-.005.087-.008 1.037-.157 2.04-.412 3-1.368 5.136-6.045 8.935-11.606 8.935h-19.869c-5.688 0-10.455-3.974-11.698-9.289-.203-.87-.321-1.772-.323-2.702 0-.011-.002-.021-.002-.031v-2.13c0-6.629 5.394-12.022 12.023-12.022.552 0 1-.448 1-1 0-.553-.448-1-1-1-2.986 0-5.751.945-8.028 2.542-1.343.941-2.512 2.111-3.453 3.453-1.597 2.277-2.542 5.042-2.542 8.027v2.13c0 7.732 6.291 14.022 14.023 14.022h19.869c7.732 0 14.023-6.29 14.023-14.022v-2.13c0-2.985-.946-5.751-2.543-8.027-.941-1.343-2.11-2.511-3.452-3.453m-89.439 22.9326h-1.812c-.553 0-1.001.448-1.001 1s.448 1 1.001 1h1.812c.552 0 1-.448 1-1s-.448-1-1-1"/><path d="m143.3196 222.9533c.015-.329.025-.658.025-.99v-8.416c0-1.907-.247-3.756-.708-5.52.398.184.782.391 1.142.634 1.366.922 2.429 2.252 3.033 3.81l.497 2c.034.302.056.609.056.921v.551c0 2.799-1.424 5.271-3.586 6.731-.148.1-.304.189-.459.279zm-1.467-17.324c-3.067-7.852-10.548-13.508-19.378-13.894v-1.153c0-1.991-1.614-3.605-3.605-3.605h-13.573c-.487 0-.951.1-1.375.275v-11.648c0-1.104.896-2 2-2h.414c2.209 0 4 1.791 4 4v4.477c0 .553.447 1 1 1 .552 0 1-.447 1-1v-4.477c0-2.209 1.79-4 4-4h6.42v6.201c0 4.37 3.289 8.191 7.649 8.483 4.781.32 8.774-3.479 8.774-8.192v-6.492h6.609c.998 0 1.808.809 1.808 1.808v2.613c0 1.104.895 2 2 2 .649 0 1.213.487 1.262 1.135.31 4.081 2.03 7.834 4.751 10.697v.175.013l.001 14.656c.069 1.602.707 4.047 2.386 5.77h-9.065c-1.009-3.336-3.698-5.939-7.078-6.842zm-.508 16.334c0 .451-.038.893-.067 1.337-.671 9.993-8.761 17.963-18.803 18.45v-4.217-2.867c0-1.269-1.032-2.302-2.302-2.302h-16.179c-1.27 0-2.302 1.033-2.302 2.302v2.867 4.217c-10.042-.487-18.132-8.457-18.803-18.451-.03-.444-.068-.885-.068-1.336v-8.416c0-10.938 8.899-19.837 19.837-19.837h18.851c10.938 0 19.836 8.899 19.836 19.837zm-20.87 15.618v4.218h-16.783v-4.218-.913c0-.167.135-.302.302-.302h16.179c.167 0 .302.135.302.302zm-16.783-46.999c0-.885.72-1.605 1.605-1.605h13.574c.885 0 1.604.72 1.604 1.605v1.128h-16.783zm.23-37.414c0-1.104.896-2 2-2h16.834v18.436c0 1.105-.896 2-2 2h-14.834c-1.104 0-2-.895-2-2zm0-4h6.414v-9.218h-6.414zm0-91.758c0-2.209 1.791-4 4-4h52.501c2.209 0 4 1.791 4 4v76.54c0 2.209-1.791 4-4 4h-40.874c-.552 0-1 .448-1 1s.448 1 1 1h1.207c1.104 0 2 .896 2 2v7.218h-10.42v-9.218h.859c.552 0 1-.448 1-1s-.448-1-1-1h-5.273c-2.209 0-4-1.791-4-4zm0-8.239c0-4.297 3.483-7.78 7.78-7.78h155.519.059c2.327.008 3.486 2.822 1.84 4.467l-13.389 13.389c-1.038 1.039-2.723 1.039-3.762 0l-2.563-2.563c-.388-.389-1.025-.389-1.414 0l-2.526 2.526c-3.607-2.279-7.523-3.904-11.661-4.839v-3.564c0-.552-.448-1-1-1h-12.02-2.549-7.212c-1.88 0-3.404 1.524-3.404 3.404v4.104c0 .381-.13.657-.291.859-.31.174-.618.353-.924.535-.312.048-.756.018-1.161-.38-.438-.431-.831-.855-1.139-1.201-.68-.763-1.657-1.179-2.686-1.128l-7.806.35c-.849.039-1.653.393-2.254.994l-5.503 5.503c-.373.373-.879.583-1.407.583h-14.026c-2.209 0-4-1.791-4-4v-5.02c0-1.657-1.343-3-3-3h-59.501zm171.08-.058v.058 155.519c0 4.297-3.483 7.781-7.781 7.781-1.679 0-3.04-1.362-3.04-3.04v-24.797c0-.553-.447-1-1-1h-6.218c-2.209 0-4-1.791-4-4v-58.13l6.745-6.745c.39-.391.39-1.024 0-1.414l-2.526-2.527c2.28-3.608 3.905-7.523 4.839-11.661h3.564c.552 0 1-.448 1-1v-14.569c0-.552-.448-1-1-1h-3.564c-.934-4.138-2.559-8.054-4.839-11.661l2.526-2.527c.391-.39.39-1.023 0-1.414l-2.563-2.563c-1.039-1.039-1.039-2.723 0-3.762l13.316-13.315c1.637-1.638 4.524-.549 4.541 1.767zm-74.922 9.125-8.455 8.455h-6.787l7.935-7.935c.248-.248.578-.394.93-.409l6.111-.275.45-.02zm-8.455 56.814 8.545 8.544-6.462-.211c-.358-.012-.694-.158-.947-.411l-7.923-7.922zm-13.381-17.895c-.774 0-1.404-.63-1.404-1.404v-9.761c0-.774.63-1.404 1.465-1.404h6.15v12.569zm7.211 2h3.565c.934 4.138 2.559 8.054 4.838 11.661l-2.233 2.234h-6.774c.012-.014.016-.03.029-.042 1.097-1.098 1.313-2.794.524-4.126-1.703-2.876-2.986-5.967-3.812-9.186-.048-.188-.112-.369-.189-.541zm25.569 30.78c-.774 0-1.404-.63-1.404-1.404v-3.78c2.434 1.146 4.979 2.025 7.616 2.62v2.564zm-18.762 3.421c.031-.155.07-.308.07-.47v-2.402c0-.224.183-.407.407-.407h5.672v.757c-2.168.523-4.227 1.374-6.149 2.522zm-8.597 33.736 3.536 3.536c-.1.156-.189.307-.262.444-.068.124-.223.196-.362.197l-3.959-.13c-.104-.003-.202-.045-.275-.118l-3.929-3.929zm-4.44-17.83v6.527h-5.305c-.038 0-.069.017-.105.021-.087-.009-.173-.021-.262-.021-.224 0-.406-.183-.406-.407v-5.713c0-.224.182-.407.443-.407.166 0 .326-.022.484-.055.087.026.174.055.269.055zm-.811-11.303 3.936-3.936c.073-.072.168-.114.27-.118l4.109-.185.459-.02c.123-.007.238.042.319.131.04.046.091.1.136.15l-.281.28-3.765 3.766c-.106-.038-.216-.068-.335-.068zm-.215 1.997c.006 0 .011.003.017.003h5.046c.119 0 .229-.029.335-.068l1.02 1.021c-1.21 1.978-2.093 4.108-2.635 6.35h-.955-.802-4.251c.475-1.773 1.186-3.478 2.127-5.067.411-.694.434-1.527.098-2.239zm-.098 22.9c-.941-1.589-1.652-3.293-2.126-5.067h4.219c.005 0 .01-.003.016-.004.005.001.009.004.015.004h1.757c.542 2.242 1.425 4.371 2.635 6.35l-.952.953h-5.458c.329-.703.306-1.539-.106-2.236zm20.31 11.362v.756h-5.672c-.224 0-.407-.182-.407-.407v-2.833c1.903 1.128 3.938 1.967 6.079 2.484zm22.212-32.893c1.447 2.185 2.443 4.585 2.961 7.136.095.466.505.801.98.801h1.559v6.527h-1.559c-.475 0-.885.335-.98.801-.518 2.55-1.514 4.951-2.961 7.136-.262.397-.21.924.127 1.26l1.106 1.106-4.616 4.615-1.106-1.106c-.336-.336-.862-.39-1.259-.127-2.185 1.448-4.586 2.444-7.136 2.961-.466.095-.801.505-.801.98v1.559h-6.527v-1.559c0-.475-.335-.885-.801-.98-2.551-.517-4.952-1.513-7.137-2.961-.396-.263-.923-.209-1.259.127l-1.106 1.106-4.615-4.615 1.106-1.106c.336-.337.389-.863.126-1.26-1.447-2.185-2.443-4.586-2.961-7.136-.094-.466-.504-.801-.98-.801h-1.559v-6.527h1.559c.476 0 .886-.335.98-.801.518-2.551 1.514-4.951 2.961-7.136.263-.397.21-.923-.126-1.26l-1.106-1.106 4.615-4.615 1.106 1.106c.336.337.862.389 1.259.127 2.185-1.447 4.587-2.443 7.137-2.961.466-.095.801-.505.801-.98v-1.559h6.527v1.559c0 .475.335.885.8.98 2.551.518 4.952 1.514 7.137 2.961.398.262.923.21 1.259-.127l1.106-1.106 4.616 4.615-1.106 1.106c-.337.336-.389.863-.127 1.26zm-11.003-84.335v-3.781c0-.774.63-1.404 1.404-1.404h6.212v2.564c-2.637.596-5.182 1.474-7.616 2.621zm8.803-.83c.471-.096.813-.501.813-.982v-1.823c0-.856.693-1.55 1.549-1.55h9.471c.855 0 1.549.694 1.549 1.55v1.823c0 .481.342.886.813.982 4.438.902 8.617 2.636 12.421 5.153.401.266.929.221 1.27-.119l.976-.977c.781-.781 2.048-.781 2.828 0l6.06 6.06c.781.781.781 2.048 0 2.828l-.977.977c-.339.34-.385.869-.12 1.269 2.517 3.804 4.252 7.983 5.155 12.422.095.471.501.813.982.813h1.823c.855 0 1.549.693 1.549 1.549v9.47c0 .856-.694 1.55-1.549 1.55h-1.823c-.481 0-.887.341-.982.813-.903 4.438-2.638 8.618-5.155 12.421-.265.401-.219.93.12 1.27l1.295 1.295c.605.605.605 1.586 0 2.191l-6.696 6.697c-.605.605-1.586.605-2.191 0l-1.295-1.295c-.34-.34-.869-.386-1.27-.12-3.802 2.517-7.982 4.251-12.421 5.153-.471.096-.813.502-.813.983v3.372h-11.02c-.856 0-1.549-.694-1.549-1.549v-1.823c0-.481-.342-.887-.813-.983-4.439-.902-8.619-2.636-12.422-5.153-.401-.266-.93-.22-1.269.12l-1.296 1.295c-.605.605-1.586.605-2.191 0l-6.696-6.697c-.605-.605-.605-1.586 0-2.191l1.295-1.295c.34-.34.385-.869.12-1.27-2.518-3.803-4.251-7.982-5.154-12.421-.096-.472-.501-.813-.982-.813h-1.823c-.856 0-1.55-.694-1.55-1.55v-9.47c0-.856.694-1.549 1.55-1.549h1.823c.481 0 .886-.342.982-.813.903-4.44 2.637-8.619 5.154-12.422.265-.401.22-.929-.12-1.269l-1.295-1.296c-.605-.605-.605-1.585 0-2.19l6.696-6.697c.605-.606 1.586-.606 2.191 0l1.296 1.295c.339.34.868.385 1.27.119 3.804-2.517 7.983-4.251 12.421-5.153zm-33.586 12.531h6.788l2.233 2.234c-2.279 3.606-3.904 7.522-4.838 11.661h-3.565-4.052c.077-.173.141-.354.189-.542.826-3.219 2.109-6.31 3.812-9.186.787-1.329.573-3.021-.567-4.167zm77.344 140.787c0 1.657-1.343 3-3 3h-9.019-63.111c-1.656 0-3-1.343-3-3v-20.846c0-1.657 1.344-3 3-3h10.331 42.15c.552 0 1-.448 1-1 0-.553-.448-1-1-1h-42.15-14.331-12.019c-.552 0-1 .447-1 1v6.414c0 .773-.627 1.4-1.4 1.4h-.004c-.552 0-1 .448-1 1v.92c0 .764-.749 1.304-1.474 1.062l-2.772-.924c-2.212-.737-4.162-1.945-5.773-3.479v-9.732c0-.702.568-1.27 1.269-1.27h.737c1.105 0 2-.896 2-2v-2.613c0-.999.809-1.808 1.808-1.808 1.657 0 3-1.343 3-3v-18.436c0-1.656-1.343-3-3-3h-3.814c-1.105 0-2-.895-2-2v-5.218c0-1.104.895-2 2-2h3.814c1.657 0 3-1.343 3-3v-67.52c0-2.209 1.791-4 4-4h9.886c1.19 0 2.146.973 2.126 2.162l-.001.028c-.002.026-.014.047-.014.073s.012.047.014.072c.023.874.375 1.75 1.075 2.426.45.435.474 1.142.156 1.68-1.791 3.031-3.14 6.287-4.011 9.678-.156.612-.711 1.039-1.41 1.039h-.1c-.036 0-.066.016-.101.02-1.782.106-3.203 1.575-3.203 3.384v9.761c0 1.888 1.546 3.423 3.502 3.403.626-.006 1.157.434 1.312 1.04.874 3.403 2.229 6.668 4.029 9.708.309.521.241 1.18-.205 1.674-1.283 1.423-1.416 3.525-.061 4.88l7.93 7.931c.611.61 1.431.966 2.295.995l6.765.221c.552.011 1.08-.108 1.554-.327.362.149.793.076 1.087-.218l2.305-2.305.221-.22c.058.036.116.068.173.104.615.384 1.241.745 1.873 1.09v4.35h-8.209c-.136 0-.265.028-.383.077-.186-.046-.377-.077-.576-.077h-5.713c-1.329 0-2.407 1.078-2.407 2.407v1.489c-.325-.075-.678-.003-.931.25l-.342.342c-.019-.02-.042-.045-.06-.065-.481-.54-1.163-.825-1.901-.799l-4.568.206c-.6.026-1.169.277-1.594.702l-4.648 4.649c-.936.936-.939 2.458.022 3.425.131.132.169.326.074.486-1.075 1.814-1.885 3.765-2.406 5.797-.045.174-.204.296-.425.296-1.327 0-2.406 1.08-2.406 2.407v5.713c0 1.324 1.074 2.402 2.433 2.406.186.001.35.111.396.291.521 2.032 1.33 3.982 2.405 5.796.088.151.067.342-.077.498-.912.987-.742 2.695.208 3.645l4.416 4.416c.432.433 1.013.684 1.624.704l3.96.13c.873.026 1.701-.428 2.142-1.187l.747.747c.253.253.606.325.931.249v1.49c0 1.33 1.078 2.407 2.407 2.407h5.713c.199 0 .39-.031.575-.077.118.049.248.077.384.077h8.527c.552 0 1-.447 1-1v-1.756c2.242-.542 4.371-1.426 6.35-2.636l1.245 1.246c.391.391 1.024.391 1.414 0l6.029-6.029c.391-.39.391-1.024.001-1.414l-1.246-1.247c1.21-1.978 2.093-4.107 2.635-6.349h1.757c.552 0 1-.448 1-1v-8.527c0-.552-.448-1-1-1h-1.757c-.542-2.242-1.425-4.372-2.635-6.35l1.246-1.246c.39-.39.39-1.023 0-1.414l-6.03-6.029c-.189-.189-.434-.282-.682-.288h.971 2.549 12.02c.552 0 1-.448 1-1v-3.564c4.139-.935 8.055-2.559 11.661-4.838l2.526 2.525c.391.391 1.024.391 1.414 0l1.557-1.556v58.13c0 1.104-.895 2-2 2h-4.436c-.553 0-1 .447-1 1 0 .552.447 1 1 1h14.654c1.657 0 3 1.343 3 3zm-80.13-.407c0 1.882-1.525 3.407-3.407 3.407h-3.205c-1.882 0-3.407-1.525-3.407-3.407 0-1.881 1.525-3.407 3.407-3.407h1.202c.553 0 1-.447 1-1v-11.218c0-.552-.447-1-1-1h-1.202c-1.882 0-3.407-1.525-3.407-3.407v-.001c0-1.881 1.525-3.406 3.407-3.406h3.205c1.882 0 3.407 1.525 3.407 3.406zm-12.423-7.407v-5.218c0-1.104.896-2 2-2h2.013c1.105 0 2 .896 2 2v5.218c0 1.105-.895 2-2 2h-2.013c-1.104 0-2-.895-2-2zm-11.816-7.842c1.469 1.097 3.127 1.976 4.937 2.58l4.113 1.371c.458.153.766.58.766 1.062v.006c0 .563-.418 1.041-.975 1.118-1.978.272-3.972-.201-5.656-1.391-1.652-1.165-2.757-2.841-3.185-4.746zm-12.713-24.029c0-.994.805-1.8 1.8-1.8h15.724c.994 0 1.8.806 1.8 1.8v.01c0 .993-.806 1.799-1.8 1.799h-15.724c-.995 0-1.8-.806-1.8-1.799zm18.324-18.627c.552 0 1 .448 1 1v7.849c0 3.319-2.689 6.007-6.008 6-2.333-.004-4.999-.009-7.33-.013-3.31-.005-5.986-2.69-5.986-6v-8.836zm-24.244-2v-7.218c0-1.104.895-2 2-2h12.43c1.104 0 2 .896 2 2v5.218c0 1.105-.896 2-2 2zm-14.423 0v-7.218c0-1.104.895-2 2-2h8.423c1.104 0 2 .896 2 2v7.218zm12.423 26.436v4.275c0 3.157-2.263 5.974-5.394 6.375-3.788.487-7.029-2.465-7.029-6.158v-4.492c0-1.104.895-2 2-2h8.423c1.104 0 2 .896 2 2zm1-18.217c-.552 0-1 .448-1 1v13.217h-10.423c-1.105 0-2-.895-2-2v-18.436h18.343v20.233c0 .072.026.135.041.203h-1.961c-1.105 0-2-.895-2-2v-11.217c0-.552-.448-1-1-1zm17.43 23.908v7.417c-1.489-2.122-2.444-4.617-2.719-7.284-.078-.749.516-1.403 1.27-1.403h.179c.701 0 1.27.568 1.27 1.27zm-6.013-5.481c0-1.22.989-2.21 2.21-2.21h5.6c1.221 0 2.21.99 2.211 2.21 0 1.221-.99 2.211-2.211 2.211h-5.6c-1.221 0-2.21-.99-2.21-2.211zm20.436 35.257c0 .773-.627 1.4-1.4 1.4h-5.751c-4.932-.107-5.262-5.622-5.272-5.813v-8.634c.619.82 1.358 1.562 2.234 2.18 1.727 1.219 3.714 1.844 5.736 1.844.268 0 .537-.013.805-.036.665-.059 1.244.441 1.244 1.109v1.545c0 .553.448 1 1 1h.004c.773 0 1.4.627 1.4 1.4zm-89.211 2.476v8.416c0 .282.011.561.021.84-.069-.044-.143-.083-.212-.129-2.161-1.46-3.585-3.932-3.585-6.731v-.551c0-2.799 1.424-5.271 3.585-6.731.275-.186.567-.349.865-.5-.439 1.723-.674 3.527-.674 5.386zm-6.279-132.966h1.003c1.104 0 2 .896 2 2v2.013c0 1.105-.896 2-2 2h-1.003c-1.66 0-3.007-1.346-3.007-3.006 0-1.661 1.347-3.007 3.007-3.007zm-4.915 6.013h-.698c-1.658 0-3.006-1.349-3.006-3.006 0-1.658 1.348-3.007 3.006-3.007h.698zm233.978 137.896h-6.009c-4.86 0-8.624-4.028-8.575-8.889 0-.037.001-.074.001-.111v-36.519c0-.553-.448-1-1-1-.553 0-1 .447-1 1v36.519c0 4.971-4.03 9-9 9h-12.752-19.301-101.333c2.836-1.794 4.729-4.95 4.729-8.547v-.551c0-.311-.019-.618-.047-.921h13.531c.059.001.111.009.17.009 2.17 0 3.817.591 4.898 1.756 1.696 1.828 1.513 4.545 1.511 4.569-.045.55.365 1.033.915 1.078.028.002.056.003.083.003.515 0 .953-.395.996-.918.012-.146.265-3.592-2.023-6.076-.139-.149-.288-.286-.438-.421h2.023c.017.001.031.009.048.009h12.019 68.111 12.019c.017 0 .032-.008.049-.009h3.991c5.402 0 9.781-4.379 9.781-9.781v-155.519c0-2.686-1.089-5.122-2.849-6.891-.006-.008-.008-.017-.016-.025-.007-.007-.017-.009-.024-.016-1.77-1.759-4.206-2.848-6.892-2.848h-155.519c-5.401 0-9.78 4.378-9.78 9.78v3.239 86.54 11.218 22.436 16.747c-.141.386-.23.797-.23 1.231v1.153c-3.548.155-6.875 1.163-9.789 2.82v-109.285c0-.552-.448-1-1-1-.553 0-1 .448-1 1v110.57c-3.408 2.461-6.079 5.879-7.617 9.858-3.385 1.006-6.036 3.735-6.922 7.169-.222.859-.958 1.484-1.845 1.484h-.002c-1.044 0-1.89-.846-1.89-1.89v-119.867c0-2.209 1.791-4 4-4h.918c1.656 0 3-1.343 3-3v-4.013c0-1.656-1.344-3-3-3h-7.393c-2.614 0-4.952 1.906-5.205 4.507-.291 2.984 2.056 5.506 4.982 5.506h.698v126.757c0 .552.448 1 1 1h4.438c.138 3.426 1.981 6.414 4.708 8.139h-2.126-8.796c-4.971 0-9-4.029-9-9v-177.119c0-4.971 4.029-9 9-9h21.11c1.601 0 2.519 1.764 1.658 3.113-1.086 1.702-1.716 3.721-1.716 5.887v9.711c0 .552.447 1 1 1 .552 0 1-.448 1-1v-9.711c0-4.971 4.029-9 9-9h145.066 32.053c4.97 0 9 4.029 9 9v130.794c0 .552.447 1 1 1 .552 0 1-.448 1-1v-130.794c0-6.075-4.925-11-11-11h-32.053-145.066-32.052c-6.075 0-11 4.925-11 11v177.119.111c.049 4.861-3.714 8.889-8.574 8.889h-3.672c-.553 0-1 .448-1 1s.447 1 1 1h23.246 8.796c2.054 0 3.864 1.292 4.594 3.212 3.13 8.231 11.1 14.097 20.417 14.097h18.851c9.316 0 17.287-5.866 20.417-14.097.73-1.92 2.54-3.212 4.594-3.212h99.449 19.301 12.752 25.583c.552 0 1-.448 1-1s-.448-1-1-1z"/></g></g><path d="m0 0h438v270h-438z"/></g></svg>
