<svg fill="none" height="226" viewBox="0 0 262 226" width="262" xmlns="http://www.w3.org/2000/svg" xmlns:xlink="http://www.w3.org/1999/xlink"><mask id="a" height="199" maskUnits="userSpaceOnUse" width="254" x="4" y="7"><path clip-rule="evenodd" d="m4 205.745v-198.60001h253.6v198.60001z" fill="none" fill-rule="evenodd"/></mask><g mask="url(#a)"><path clip-rule="evenodd" d="m16.8 54.745h37.8c13.1 0 23.8-10.6 23.8-23.8s10.6-23.80001 23.7-23.80001h77.2c43.2 0 78.2 35.00001 78.2 78.20001s-35 78.2-78.2 78.2h-7c-11.6 0-21 9.4-21 21s-9.4 21-21 21h-76.7c-25.2.2-45.6-20.2-45.6-45.4s20.4-45.6 45.6-45.6h.9c9.4 0 17.1-7.7 17.1-17.1s-7.6-17.1-17.1-17.1h-37.7c-7.1 0-12.8-5.7-12.8-12.8s5.7-12.8 12.8-12.8z" fill="#4f545c" fill-opacity=".3" fill-rule="evenodd"/></g><g clip-rule="evenodd" fill-rule="evenodd"><path d="m109.3 181.8c-.1.5-.6.9-1.2.8l-10-1.8c-1.6-.3-2.7-1.9-2.4-3.5l2.4-13.2h-8.1l-4.4 24.6c-.3 1.6.8 3.2 2.4 3.5l80.7 14.6c.8.1 1.6 0 2.2-.5.7-.5 1.1-1.1 1.2-1.9l14.6-81.2-8.6 2.9-11.6 64.1c-.3 1.4-1.5 2.5-2.9 2.5-.2 0-.4 0-.5 0l-9-1.6c-.5-.1-.9-.6-.8-1.2" fill="#36393f"/><path d="m98.5 178.8 4.1.7 1.4-4.3c1.4-4.3 3.8-8.1 6.8-11.2h-10.7l-2.4 13.6c-.1.6.2 1.1.8 1.2zm60.6-46.5c2.8 4.9 3.8 10.6 2.8 16.2-1.1 6.3-4.7 11.8-9.9 15.5-.2.1-.3.2-.5.3 5.3 5.5 8.4 13 8.1 21.1l-.2 4.5 4.1.7c.5.1 1.1-.3 1.2-.8l11.4-63z" fill="#4f545c"/><path d="m149 144.7c.3-1.6 1.9-2.7 3.5-2.4s2.7 1.9 2.4 3.5-1.9 2.7-3.5 2.4-2.7-1.8-2.4-3.5zm-5.9 14.4c0 2.8-2.2 5-5 5h-9.3c1.7.8 3.6 1.4 5.5 1.8 5.8 1 11.6-.2 16.5-3.6 4.8-3.4 8.1-8.4 9.1-14.2 1-5.4-.1-10.8-2.8-15.2l-14 4.6z" fill="#4f545c"/><path d="m171.8 111.3c-.2-.5.1-1.1.6-1.3l8.4-2.8-1.9-3.8c-3.4-6.9-9.4-11.7-16.4-13.8-3 4.6-7.4 8-12.6 9.7-2.3.7-4.6 1.1-6.8 1.2v20" fill="#36393e"/><path d="m154 68.2c1.6-.5 3.3.3 3.8 1.9s-.3 3.3-1.9 3.8-3.3-.3-3.8-1.9c-.6-1.6.3-3.3 1.9-3.8zm-10.9-5.1v17.4l4.3-1.4c.5-.2 1.1.1 1.3.6s-.1 1.1-.6 1.3l-4.9 1.6v16c2.1-.1 4.1-.4 6.2-1.1 5.6-1.8 10.1-5.7 12.8-11 2.6-5.2 3.1-11.2 1.2-16.8-3-9.2-11.7-15.1-20.9-15.1-.9 0-1.8.1-2.8.2.1.6.1 1.3-.1 2l-.4 1.5c2.2.4 3.9 2.4 3.9 4.8zm-100.7 55.8 4 1 1.7-4.2c.8-2 1.8-3.9 3-5.6v-29.8l-9.4 37.4c-.1.5.2 1.1.7 1.2zm18.8-74.7c-.3-.1-.5 0-.8.1-.2.1-.4.4-.5.6l-3.3 13.1h59.6zm-12.8 76.2 2.7.7v-7.1c-.4.8-.8 1.6-1.2 2.5z" fill="#36393f"/><path d="m81.3 148.1c0 .6-.4 1-1 1h-16.2c-1.7 0-3-1.3-3-3v-75c0-1.7 1.3-3 3-3h66c1.7 0 3 1.3 3 3v75c0 1.7-1.3 3-3 3h-16.1c-.6 0-1-.4-1-1zm-25.2 14h82c1.7 0 3-1.3 3-3v-96c0-1.7-1.3-3-3-3h-82c-1.7 0-3 1.3-3 3v96c0 1.7 1.4 3 3 3z" fill="#36393f"/><path d="m83.7 101.6c1.7 0 3 1.3 3 3s-1.3 3-3 3-3-1.3-3-3c0-1.6 1.4-3 3-3zm8.6 8.7c.3-.4.9-.5 1.4-.2 2 1.5 4.8 1.5 6.8 0 .4-.3 1.1-.2 1.4.2s.2 1.1-.2 1.4c-1.4 1-3 1.5-4.6 1.5s-3.2-.5-4.6-1.5c-.4-.3-.5-.9-.2-1.4zm21.4-5.7c0 1.7-1.3 3-3 3s-3-1.3-3-3 1.3-3 3-3 3 1.4 3 3zm5.4 1.4c0-12.1-9.9-22-22-22s-22 9.9-22 22 9.9 22 22 22 22-9.9 22-22z" fill="#36393f"/><path d="m143.1 100.6c2.3-.1 4.6-.4 6.8-1.2 4.8-1.6 8.9-4.6 11.8-8.6.5-.7 1.5-1 2.3-.7 6.3 2.3 11.8 6.9 14.9 13.3l.3.7c.8 1.6 0 3.6-1.8 4.2l-5.1 1.7c-.5.2-.8.7-.6 1.3.2.5.7.8 1.3.6l14.2-4.7c1.6-.5 2.4-2.2 1.9-3.8l-23.5-71.2c-.3-.8-.8-1.4-1.5-1.7-.7-.4-1.5-.4-2.3-.2l-43.5 14.4c-1.8.6-3.7.7-5.6.2l-8.3-2.1c-1-.2-1-1.6-.1-1.9l62.7-20.7c.3-.1.6-.2.9-.2 1.3 0 2.4.8 2.9 2.1l30.1 91.2c.3.8.2 1.6-.2 2.3s-1 1.2-1.7 1.5l-53.2 17.6c-1.3.4-2.6-.5-2.6-1.9v-32.2zm29 103.7c-.1.8-.6 1.5-1.2 1.9s-1.5.6-2.2.5l-80.7-14.5c-1.6-.3-2.7-1.9-2.4-3.5l3.8-21.3c.3-1.9 2-3.3 3.9-3.3 2.5 0 4.4 2.3 3.9 4.7l-1.5 8.5c-.3 1.6.8 3.2 2.4 3.5l10 1.8c.5.1 1.1-.3 1.2-.8s-.3-1.1-.8-1.2l-1-.2c-1.6-.3-2.5-1.9-2-3.4l.4-1.2c1.5-4.7 4.3-8.7 7.8-11.8h11.1c2.7 1.8 5.8 3.1 9.2 3.7 1.4.3 2.9.4 4.3.4 4 0 7.9-1 11.4-2.9 5.1 5.1 8.2 12.3 7.9 19.9l-.1 1.2c-.1 1.6-1.5 2.8-3.1 2.5-.5-.1-1.1.3-1.2.8s.3 1.1.8 1.2l9 1.6h.5c1.4 0 2.7-1 3-2.5l11.6-64.1 8.6-2.9zm-61.3-40.2c-3 3.1-5.4 6.8-6.8 11.2l-1.4 4.3-4.1-.7c-.5-.1-.9-.6-.8-1.2l2-11.1c.3-1.4 1.5-2.5 3-2.5zm-54.7-2c-1.7 0-3-1.3-3-3v-96c0-1.7 1.3-3 3-3h82c1.7 0 3 1.3 3 3v96c0 1.7-1.3 3-3 3zm44.1-104h-40.9c-1.3 0-2.3-1.2-1.9-2.5l2.6-10.6c.1-.3.2-.5.5-.6.2-.1.5-.2.8-.1l39.4 9.9c2.3.5 1.8 3.9-.5 3.9zm63.6 29.3c2.9-5.7 3.4-12.2 1.4-18.3-3.7-11.2-15-17.9-26.3-16.2-.7-1.1-1.7-1.9-3-2.2l-16.7-4.2 43.3-14.3c.3-.1.5-.1.8.1.2.1.4.3.5.6l23.5 71.1c.2.5-.1 1.1-.6 1.3-2.2.7-4.7-.3-5.7-2.4l-.2-.3c-3.5-7.2-9.9-12.4-17.2-14.7.1-.2.2-.3.2-.5zm-3.9 60.7c-1 5.8-4.3 10.8-9.1 14.2-4.8 3.3-10.7 4.6-16.5 3.6-2-.4-3.8-1-5.5-1.8h9.3c2.8 0 5-2.2 5-5v-19.4c0-1.3.8-2.4 2.1-2.8l11.9-3.9c2.7 4.3 3.8 9.7 2.8 15.1zm-8.4 16.1c.2-.1.3-.2.5-.3 5.3-3.7 8.8-9.1 9.9-15.5 1-5.6 0-11.3-2.8-16.2l16.9-5.6-11.4 63c-.1.5-.6.9-1.2.8l-4.1-.7.2-4.5c.4-7.9-2.7-15.5-8-21zm-2.8-84.5c-.2-.5-.7-.8-1.3-.6l-3 1c-.6.2-1.3-.3-1.3-.9v-16c0-2.4-1.7-4.4-4-4.9l.4-1.5c.2-.6.2-1.3.1-2 .9-.1 1.8-.2 2.8-.2 10.1 0 19.4 7 21.6 17.7.8 3.9.5 7.9-.8 11.6-2.3 6.5-7.4 11.4-13.9 13.6-2.1.7-4.1 1-6.2 1.1v-15.3c0-.4.3-.8.7-.9l4.2-1.4c.6-.2.8-.8.7-1.3zm-97.6-16.6v9l-11.4 45.1c-.4 1.6.6 3.2 2.2 3.6l7.7 1.9c.9.2 1.5 1 1.5 1.9v9.3c0 1.3-1.2 2.3-2.5 1.9l-17.5-4.4c-.6-.2-1.2-.5-1.6-.9-.7-.8-.9-1.8-.7-2.7l23.4-93.1c.4-1.6 2-2.6 3.6-2.2l79.5 20c1 .2 1.7.9 2.1 1.9.2.6.2 1.3.1 1.9-.3 1-1.2 1.8-2.2 1.8h-10.5c-.2 0-.4 0-.6-.1l-62.5-15.7c-1-.2-2 0-2.7.7-.5.4-.8 1-.9 1.6l-3.5 13.8c-2 .6-3.5 2.5-3.5 4.7zm0 47.1c-1.2 1.7-2.2 3.6-3 5.6l-1.7 4.2-4-1c-.5-.1-.9-.7-.7-1.2l7.5-29.6c.3-1.1 2-.9 2 .2v21.8zm0 10.9-2.7-.7 1.6-3.9c.3-.9.7-1.7 1.2-2.5v7.1zm151.6-8.5-30.1-91.2c-.9-2.6-3.7-4-6.3-3.2l-63.3 21c-3.6 1.2-7.5 1.3-11.2.4l-35.5-8.9c-2.7-.7-5.4 1-6.1 3.6l-23.4 92.9c-.3 1.1-.3 2.3.2 3.4.6 1.5 1.9 2.5 3.4 2.9l20.6 5.2v20.5c0 2.8 2.2 5 5 5h29.4c1.2 0 2.2 1.1 2 2.4l-3.9 21.9c-.5 2.7 1.3 5.3 4 5.8l80.7 14.6c.3.1.6.1.9.1 1 0 2-.3 2.8-.9 1.1-.8 1.8-1.9 2.1-3.2l14.8-82.2 10.4-3.4c1.1-.4 2.1-1 2.8-2 1-1.6 1.2-3.2.7-4.7z" fill="#1f2225"/><path d="m49.1 178.8h-.5c-.6 0-1-.4-1-1v-.5c0-.6-.4-1-1-1s-1 .4-1 1v.5c0 .6-.4 1-1 1h-.6c-.6 0-1 .4-1 1s.4 1 1 1h.5c.6 0 1 .4 1 1v.5c0 .6.4 1 1 1s1-.4 1-1v-.5c0-.6.4-1 1-1h.5c.6 0 1-.4 1-1s-.4-1-.9-1zm160.9-127.7c.8 0 1.5.7 1.5 1.5 0 .6.4 1 1 1s1-.4 1-1c0-.8.7-1.5 1.5-1.5.6 0 1-.4 1-1s-.4-1-1-1c-.8 0-1.5-.7-1.5-1.5 0-.6-.4-1-1-1s-1 .4-1 1c0 .8-.7 1.5-1.5 1.5-.6 0-1 .4-1 1s.4 1 1 1zm-16.2 142.6h-.5c-.6 0-1-.4-1-1v-.5c0-.6-.4-1-1-1s-1 .4-1 1v.5c0 .6-.4 1-1 1h-.5c-.6 0-1 .4-1 1s.4 1 1 1h.5c.6 0 1 .4 1 1v.5c0 .6.4 1 1 1s1-.4 1-1v-.5c0-.6.4-1 1-1h.5c.6 0 1-.4 1-1 0-.5-.4-1-1-1zm-167.8-47.5-1.2 1.2c-.4.4-.4 1 0 1.4.2.2.5.3.7.3s.5-.1.7-.3l1.2-1.2c.4-.4.4-1 0-1.4s-1.1-.4-1.4 0zm-6 5.9-1.2 1.2c-.4.4-.4 1 0 1.4.2.2.5.3.7.3s.5-.1.7-.3l1.2-1.2c.4-.4.4-1 0-1.4-.3-.4-1-.4-1.4 0zm6.2 0c-.4-.4-1-.4-1.4 0s-.4 1 0 1.4l1.2 1.2c.2.2.5.3.7.3.3 0 .5-.1.7-.3.4-.4.4-1 0-1.4zm-5.9-5.9c-.4-.4-1-.4-1.4 0s-.4 1 0 1.4l1.2 1.2c.2.2.5.3.7.3.3 0 .5-.1.7-.3.4-.4.4-1 0-1.4zm230.1.2c.3 0 .5-.1.7-.3l1.2-1.2c.4-.4.4-1 0-1.4s-1-.4-1.4 0l-1.2 1.2c-.4.4-.4 1 0 1.4.2.2.5.3.7.3zm-5.4 3.1-1.2 1.2c-.4.4-.4 1 0 1.4.2.2.5.3.7.3.3 0 .5-.1.7-.3l1.2-1.2c.4-.4.4-1 0-1.4s-1-.4-1.4 0zm7.3 1.1-1.2-1.2c-.4-.4-1-.4-1.4 0s-.4 1 0 1.4l1.2 1.2c.2.2.5.3.7.3.3 0 .5-.1.7-.3.4-.3.4-1 0-1.4zm-7.1-7.1c-.4-.4-1-.4-1.4 0s-.4 1 0 1.4l1.2 1.2c.2.2.5.3.7.3s.5-.1.7-.3c.4-.4.4-1 0-1.4zm-35.2-11c.8 0 1.5.7 1.5 1.5s-.7 1.5-1.5 1.5-1.5-.7-1.5-1.5c0-.9.7-1.5 1.5-1.5zm0 5c1.9 0 3.5-1.6 3.5-3.5s-1.6-3.5-3.5-3.5-3.5 1.6-3.5 3.5 1.6 3.5 3.5 3.5zm-126.3-35.9c-1.7 0-3 1.3-3 3s1.3 3 3 3 3-1.3 3-3c0-1.6-1.3-3-3-3zm27 0c-1.7 0-3 1.3-3 3s1.3 3 3 3 3-1.3 3-3c0-1.6-1.3-3-3-3zm-10.2 8.5c-2 1.5-4.8 1.5-6.8 0-.4-.3-1-.2-1.4.2s-.2 1.1.2 1.4c1.3 1 2.9 1.5 4.6 1.5 1.6 0 3.3-.5 4.6-1.5.4-.3.5-1 .2-1.4s-1-.5-1.4-.2z" fill="#1f2225"/><path d="m131.1 146.1c0 .6-.4 1-1 1h-1.5c-1.5 0-2.8-1.1-3-2.6l-.3-1.9c-1-7.6-5.1-14.2-10.8-18.6-.5-.4-.5-1.1-.1-1.5 4.7-4.9 7.3-11.9 6.5-19.4-1.3-10.9-10.1-19.7-21.1-21-14.5-1.6-26.7 9.7-26.7 23.8 0 6.4 2.5 12.2 6.6 16.5.4.4.4 1.1-.1 1.5-5.7 4.4-9.7 11-10.8 18.6l-.3 1.9c-.2 1.5-1.5 2.6-3 2.6h-1.5c-.6 0-1-.4-1-1v-75c0-.6.4-1 1-1h66c.6 0 1 .4 1 1v75.1zm-34-18.1c-12.1 0-22-9.9-22-22s9.9-22 22-22 22 9.9 22 22-9.8 22-22 22zm33-59.9h-66c-1.7 0-3 1.3-3 3v77c0 1.7 1.3 3 3 3h17c1.1 0 2-.9 2-2s-.9-2-2-2h-8.6c-1.2 0-2.1-1.1-2-2.3l.3-1.9c1-7 4.7-13.2 10-17.3.7-.5 1.7-.6 2.4-.1 3.9 2.8 8.7 4.4 13.9 4.4s10-1.6 13.9-4.4c.7-.5 1.7-.5 2.4.1 5.3 4.1 9 10.2 10 17.3l.3 1.9c.2 1.2-.8 2.3-2 2.3h-8.2c-1.1 0-2 .9-2 2s.9 2 2 2h16.6c1.7 0 3-1.3 3-3v-77c0-1.6-1.3-3-3-3z" fill="#1f2225"/><path d="m199.4 171.5c-1.1.8-2.1 1.5-3.2 2.2-.5.3-.6.9-.3 1.4.2.3.5.5.8.5.2 0 .4-.1.5-.2 1.1-.7 2.3-1.5 3.3-2.3.4-.3.5-1 .2-1.4-.2-.5-.8-.6-1.3-.2zm19.1-67.7c.2.4.5.6.9.6.1 0 .3 0 .4-.1.5-.2.8-.8.6-1.3-.5-1.2-1.1-2.5-1.7-3.7-.2-.5-.8-.7-1.3-.5s-.7.8-.5 1.3c.6 1.3 1.1 2.5 1.6 3.7zm1.7 4.6c.4 1.2.7 2.5 1 3.8.1.5.5.8 1 .8h.2c.5-.1.9-.7.7-1.2-.3-1.3-.7-2.6-1.1-3.9-.2-.5-.7-.8-1.3-.7-.4.1-.7.7-.5 1.2zm-2.4 42.6c-.5-.2-1.1-.1-1.3.4-.6 1.2-1.2 2.3-1.9 3.4-.3.5-.1 1.1.3 1.4.2.1.3.1.5.1.3 0 .7-.2.9-.5.7-1.2 1.4-2.4 2-3.6.2-.4 0-1-.5-1.2zm4.3-34c.2 1.3.3 2.6.4 3.9 0 .5.5.9 1 .9h.1c.6 0 1-.5.9-1.1-.1-1.3-.3-2.7-.4-4-.1-.5-.6-.9-1.1-.8-.6.1-1 .6-.9 1.1zm1 16.8c-.5-.1-1.1.3-1.1.8-.2 1.3-.5 2.6-.8 3.9-.1.5.2 1.1.7 1.2h.2c.5 0 .9-.3 1-.8.3-1.3.6-2.7.8-4 .1-.5-.3-1-.8-1.1zm-2 8.8c-.5-.2-1.1.1-1.3.6-.4 1.2-.9 2.5-1.4 3.7-.2.5 0 1.1.6 1.3.1.1.3.1.4.1.4 0 .8-.2.9-.6.5-1.3 1-2.5 1.4-3.8.2-.6-.1-1.1-.6-1.3zm-9.3 16.3c-.8 1.1-1.6 2.1-2.4 3.1-.4.4-.3 1.1.1 1.4.2.2.4.2.6.2.3 0 .6-.1.8-.4.9-1 1.7-2.1 2.5-3.2.3-.4.2-1.1-.2-1.4-.4-.2-1-.1-1.4.3zm.9-67.7c-.5.3-.6.9-.2 1.4.7 1.1 1.5 2.2 2.1 3.3.2.3.5.5.9.5.2 0 .4 0 .5-.1.5-.3.6-.9.3-1.4-.7-1.2-1.4-2.3-2.2-3.4-.4-.5-1-.6-1.4-.3zm-23.9 88.6c.1 0 .3 0 .4-.1 1.2-.5 2.5-1.1 3.7-1.8.5-.3.7-.9.4-1.3-.3-.5-.9-.7-1.3-.4-1.2.6-2.4 1.2-3.5 1.7-.5.2-.7.8-.5 1.3.1.3.4.6.8.6zm34.9-54.9c-.6 0-1 .4-1 1 0 1.3-.1 2.6-.2 3.9 0 .6.4 1 .9 1.1h.1c.5 0 1-.4 1-.9.1-1.3.2-2.7.2-4.1 0-.6-.4-1-1-1zm-17.6 40.8c-.9.9-1.9 1.8-2.9 2.7-.4.4-.5 1-.1 1.4.2.2.5.3.8.3.2 0 .5-.1.7-.2 1-.9 2-1.8 3-2.8.4-.4.4-1 0-1.4-.5-.4-1.1-.4-1.5 0zm3.3-77c.2.2.5.4.8.4.2 0 .5-.1.6-.2.4-.4.5-1 .1-1.4-.9-1-1.8-2.1-2.7-3-.4-.4-1-.4-1.4 0s-.4 1 0 1.4c.9.8 1.8 1.8 2.6 2.8zm-6.1-6.3c.2.2.4.2.7.2s.6-.1.8-.3c.4-.4.3-1-.1-1.4-1-.9-2.1-1.8-3.1-2.6-.4-.3-1.1-.3-1.4.2-.3.4-.3 1.1.2 1.4.9.8 1.9 1.6 2.9 2.5zm-107.7 135.9c-1.3-.1-2.6-.2-3.9-.5-.5-.1-1.1.3-1.2.8s.3 1.1.8 1.2c1.3.2 2.7.4 4.1.5h.1c.5 0 1-.4 1-.9s-.4-1-.9-1.1zm-8.6-1.6c-1.2-.4-2.5-.9-3.6-1.4-.5-.2-1.1 0-1.3.5s0 1.1.5 1.3c1.2.6 2.5 1.1 3.8 1.5h.3c.4 0 .8-.3 1-.7.1-.5-.2-1-.7-1.2zm17.3 1.2c-1.3.2-2.6.4-3.9.5-.6 0-1 .5-.9 1.1 0 .5.5.9 1 .9h.1c1.4-.1 2.7-.3 4.1-.5.5-.1.9-.6.8-1.2s-.7-.9-1.2-.8zm15.8-7.2c-1 .8-2.1 1.6-3.2 2.3-.5.3-.6.9-.3 1.4.2.3.5.5.8.5.2 0 .4-.1.5-.2 1.2-.7 2.3-1.5 3.3-2.4.4-.3.5-1 .2-1.4s-.9-.5-1.3-.2zm-7.5 4.6c-1.2.5-2.4 1-3.6 1.4-.5.2-.8.7-.6 1.3.1.4.5.7 1 .7h.3c1.3-.4 2.6-.9 3.8-1.5.5-.2.7-.8.5-1.3s-.9-.8-1.4-.6zm-33.5-2.3c-1.1-.7-2.2-1.4-3.2-2.3-.4-.3-1.1-.3-1.4.2-.3.4-.3 1.1.2 1.4 1.1.9 2.2 1.7 3.3 2.4.2.1.4.2.5.2.3 0 .7-.2.8-.5.4-.5.3-1.1-.2-1.4zm-9.3-8.5c-.3-.4-1-.5-1.4-.2s-.5 1-.2 1.4c.8 1.1 1.7 2.1 2.7 3.1.2.2.5.3.7.3s.5-.1.7-.3c.4-.4.4-1 0-1.4-.8-.9-1.7-1.9-2.5-2.9zm-6-12.1c-.3-1.2-.6-2.5-.8-3.8-.1-.5-.6-.9-1.1-.8s-.9.6-.8 1.1c.2 1.3.5 2.7.9 4 .1.4.5.7 1 .7h.3c.3-.1.6-.7.5-1.2zm-1.6-16.6h.2c.5 0 .9-.3 1-.8.3-1.2.6-2.4 1-3.6.2-.5-.1-1.1-.6-1.3s-1.1.1-1.3.6c-.4 1.2-.8 2.5-1.1 3.8-.1.7.3 1.2.8 1.3zm-.6 9c.6 0 1-.5 1-1 0-.3 0-.5 0-.8 0-1 0-2.1.1-3.1 0-.6-.4-1-.9-1.1-.6-.1-1 .4-1.1.9-.1 1.1-.1 2.2-.1 3.3v.8c0 .5.4 1 1 1zm64.6 19.7c-.8 1-1.6 2-2.5 3-.4.4-.4 1 0 1.4.2.2.4.3.7.3s.5-.1.7-.3c.9-1 1.8-2 2.7-3.1.3-.4.3-1.1-.2-1.4-.4-.4-1.1-.3-1.4.1zm-60.8-7.5c-.2-.5-.8-.7-1.3-.5s-.7.8-.5 1.3c.5 1.3 1.2 2.5 1.8 3.7.2.3.5.5.9.5.2 0 .3 0 .5-.1.5-.3.6-.9.4-1.4-.7-1.2-1.3-2.3-1.8-3.5z" fill="#1f2225"/><path d="m154 68.2c1.6-.5 3.3.3 3.8 1.9s-.3 3.3-1.9 3.8-3.3-.3-3.8-1.9c-.6-1.6.3-3.3 1.9-3.8z" fill="#1f2225"/><path d="m151 142.4c1.6-.5 3.3.3 3.8 1.9s-.3 3.3-1.9 3.8-3.3-.3-3.8-1.9c-.6-1.6.3-3.3 1.9-3.8z" fill="#1f2225"/></g></svg>
